/* XPM */
static char * terminal_xpm[] = {
"32 26 159 2",
"  	c None",
". 	c #080808",
"+ 	c #1F1F1F",
"@ 	c #212121",
"# 	c #1E1E1E",
"$ 	c #070707",
"% 	c #333333",
"& 	c #BCBCBC",
"* 	c #C5C5C5",
"= 	c #C4C4C4",
"- 	c #B4B4B4",
"; 	c #2E2E2E",
"> 	c #434343",
", 	c #F3F3F3",
"' 	c #B6B6B6",
") 	c #CBCBCB",
"! 	c #CACACA",
"~ 	c #C9C9C9",
"{ 	c #C7C7C7",
"] 	c #C0C0C0",
"^ 	c #9A9A9A",
"/ 	c #E9E9E9",
"( 	c #3C3C3C",
"_ 	c #D0D0D0",
": 	c #FFFFFF",
"< 	c #FEFEFE",
"[ 	c #D8D8D8",
"} 	c #878787",
"| 	c #595959",
"1 	c #E7E7E7",
"2 	c #FCFCFC",
"3 	c #FBFBFB",
"4 	c #FDFDFD",
"5 	c #EFEFEF",
"6 	c #A5A5A5",
"7 	c #515151",
"8 	c #373737",
"9 	c #505050",
"0 	c #F2F2F2",
"a 	c #F8F8F8",
"b 	c #F9F9F9",
"c 	c #FAFAFA",
"d 	c #F6F6F6",
"e 	c #BFBFBF",
"f 	c #606060",
"g 	c #363636",
"h 	c #F4F4F4",
"i 	c #F5F5F5",
"j 	c #F7F7F7",
"k 	c #E0E0E0",
"l 	c #454545",
"m 	c #B5B5B5",
"n 	c #E8E8E8",
"o 	c #EAEAEA",
"p 	c #EEEEEE",
"q 	c #EDEDED",
"r 	c #F0F0F0",
"s 	c #F1F1F1",
"t 	c #E6E6E6",
"u 	c #AAAAAA",
"v 	c #444444",
"w 	c #A9A9A9",
"x 	c #DDDDDD",
"y 	c #DEDEDE",
"z 	c #DFDFDF",
"A 	c #E2E2E2",
"B 	c #E3E3E3",
"C 	c #E5E5E5",
"D 	c #D5D5D5",
"E 	c #787878",
"F 	c #404040",
"G 	c #9C9C9C",
"H 	c #CDCDCD",
"I 	c #CFCFCF",
"J 	c #D2D2D2",
"K 	c #D3D3D3",
"L 	c #D6D6D6",
"M 	c #D7D7D7",
"N 	c #D9D9D9",
"O 	c #DBDBDB",
"P 	c #555555",
"Q 	c #383838",
"R 	c #949494",
"S 	c #C3C3C3",
"T 	c #C8C8C8",
"U 	c #CECECE",
"V 	c #D1D1D1",
"W 	c #D4D4D4",
"X 	c #7E7E7E",
"Y 	c #3F3F3F",
"Z 	c #939393",
"` 	c #BEBEBE",
" .	c #CCCCCC",
"..	c #ADADAD",
"+.	c #5F5F5F",
"@.	c #393939",
"#.	c #8D8D8D",
"$.	c #B7B7B7",
"%.	c #B9B9B9",
"&.	c #BABABA",
"*.	c #BDBDBD",
"=.	c #C2C2C2",
"-.	c #C6C6C6",
";.	c #959595",
">.	c #3E3E3E",
",.	c #ABABAB",
"'.	c #AEAEAE",
").	c #808080",
"!.	c #414141",
"~.	c #838383",
"{.	c #A3A3A3",
"].	c #A6A6A6",
"^.	c #A7A7A7",
"/.	c #B0B0B0",
"(.	c #B3B3B3",
"_.	c #636363",
":.	c #7F7F7F",
"<.	c #9D9D9D",
"[.	c #9F9F9F",
"}.	c #999999",
"|.	c #5A5A5A",
"1.	c #7A7A7A",
"2.	c #8F8F8F",
"3.	c #969696",
"4.	c #9E9E9E",
"5.	c #898989",
"6.	c #474747",
"7.	c #757575",
"8.	c #858585",
"9.	c #8B8B8B",
"0.	c #909090",
"a.	c #767676",
"b.	c #727272",
"c.	c #7D7D7D",
"d.	c #868686",
"e.	c #6F6F6F",
"f.	c #5E5E5E",
"g.	c #616161",
"h.	c #6B6B6B",
"i.	c #717171",
"j.	c #3A3A3A",
"k.	c #5B5B5B",
"l.	c #4F4F4F",
"m.	c #525252",
"n.	c #4A4A4A",
"o.	c #3B3B3B",
"p.	c #575757",
"q.	c #424242",
"r.	c #535353",
"s.	c #7C7C7C",
"t.	c #2F2F2F",
"u.	c #B8B8B8",
"v.	c #A8A8A8",
"w.	c #2A2A2A",
"x.	c #050505",
"y.	c #161616",
"z.	c #181818",
"A.	c #171717",
"B.	c #151515",
". + @ @ @ @ @ @ @ @ @ @ @ @ @ @ @ @ @ @ @ @ @ @ @ @ @ @ @ @ # $ ",
"% & * * * * * * * = = * * * * * * * * * * * * * * * * * * * - ; ",
"> , ' ) ) ) ) ) ) ) ) ) ! ~ ) ! ! ) ) ) ) ) ! ~ ) ! { ! ] ^ / ( ",
"> , _ : < < : : : : : : : : : : : : : : : : : : : : : [ } | 1 ( ",
"> , ! 2 3 3 2 2 2 2 2 < 4 : : : : : : : : : : : < 5 6 7 8 9 / ( ",
"> 0 = a b b a b b 3 c c 3 2 4 4 4 4 4 : : : : d e f g g g 9 / ( ",
"> 0 e h h i i h d d j j a a a b 3 3 3 < 2 2 k } l g g g g 9 / ( ",
"> , m n o / o p q q r q s 0 , h 0 h 0 , t u v 8 g g g g g 9 / ( ",
"> s w x y z A B C t t 1 n / / / 1 / / D E F g g g g g g g 9 n ( ",
"> 0 G H H I J K L M [ N N x y z B O w P Q g g g g g g g g 9 n ( ",
"> , R S * T ~ ! ) U V W W D M [ { X Y g g g g g g g g g g 9 n ( ",
"> , Z ` ] S = = { T  .H U _ V ..+.@.g g g g g g g g g g g 9 1 ( ",
"> 0 #.$.%.&.*.e =.=.-.-.~ * ;.>.g g g g g g g g g g g g g 9 n ( ",
"> 0 } ,.'.- $.& *.*.] S *.).!.g g g g g g g g g g g g g g 9 n ( ",
"> s ~.{.].^.u './.(.&.'._.Q g g g g g g g g g g g g g g g 9 1 ( ",
"> , :.^ <.[.{.6 w ,.}.|.Q g g g g g g g g g g g g g g g g 9 n ( ",
"> 0 1.2.Z 3.^ 4.[.5.6.8 g g g g g g g g g g g g g g g g g 9 n ( ",
"> s 7.8.5.9.2.0.a.!.g g g g g g g g g g g g g g g g g g g 9 n ( ",
"> , b.c.).~.d.e.F g g g g g g g g g g g g g g g g g g g g 9 / ( ",
"> , f.g.h.i.f j.g g g g g g g g g g g g g g g g g g g g g 9 1 ( ",
"> , k.l.m.n.o.g g g g g g g g g g g g g g g g g g g g g g 9 / ( ",
"> s p.q.Y Q g g g g g g g g g g g g g g g g g g g g g g g 9 / ( ",
"> , r.j.g g g g g g g g g g g g g g g g g g g g g g g g g 9 n ( ",
"> , 2.c.s.s.s.X s.X s.s.s.c.s.s.X s.s.s.c.c.s.s.s.X s.s.s.#.o ( ",
"t./.u.u.%.u.%.u.u.u.u.u.u.u.u.u.u.%.u.u.u.u.u.u.%.u.u.%.u.%.v.w.",
"x.y.z.z.z.z.z.z.z.z.z.z.z.z.z.z.A.z.z.z.z.z.z.z.z.z.z.z.A.z.B.x."};
