<?xml version="1.0" encoding="UTF-8" standalone="no"?>
<!-- Created with Inkscape (http://www.inkscape.org/) -->
<svg
   xmlns:dc="http://purl.org/dc/elements/1.1/"
   xmlns:cc="http://creativecommons.org/ns#"
   xmlns:rdf="http://www.w3.org/1999/02/22-rdf-syntax-ns#"
   xmlns:svg="http://www.w3.org/2000/svg"
   xmlns="http://www.w3.org/2000/svg"
   xmlns:sodipodi="http://sodipodi.sourceforge.net/DTD/sodipodi-0.dtd"
   xmlns:inkscape="http://www.inkscape.org/namespaces/inkscape"
   width="48"
   height="47.999996"
   id="svg2"
   sodipodi:version="0.32"
   inkscape:version="0.46"
   sodipodi:docname="do-not-pan.svg"
   inkscape:output_extension="org.inkscape.output.svg.inkscape"
   version="1.0"
   inkscape:export-filename="/scratchbox/users/nix/home/nix/src/xterm/osso-xterm-svn/new-xterm/pixmaps/do-not-pan.png"
   inkscape:export-xdpi="90.000008"
   inkscape:export-ydpi="90.000008">
  <defs
     id="defs4">
    <linearGradient
       id="linearGradient3236">
      <stop
         style="stop-color:#00a72b;stop-opacity:1;"
         offset="0"
         id="stop3238" />
      <stop
         style="stop-color:#5eff88;stop-opacity:1;"
         offset="1"
         id="stop3240" />
    </linearGradient>
    <linearGradient
       id="linearGradient3226">
      <stop
         style="stop-color:#000000;stop-opacity:1;"
         offset="0"
         id="stop3228" />
      <stop
         id="stop3234"
         offset="0.5"
         style="stop-color:#000000;stop-opacity:0;" />
      <stop
         style="stop-color:#000000;stop-opacity:1;"
         offset="1"
         id="stop3230" />
    </linearGradient>
    <linearGradient
       id="linearGradient3211">
      <stop
         style="stop-color:#5ec4ff;stop-opacity:1;"
         offset="0"
         id="stop3213" />
      <stop
         id="stop3219"
         offset="1"
         style="stop-color:#0069a7;stop-opacity:1;" />
    </linearGradient>
    <inkscape:perspective
       sodipodi:type="inkscape:persp3d"
       inkscape:vp_x="0 : 526.18109 : 1"
       inkscape:vp_y="0 : 1000 : 0"
       inkscape:vp_z="744.09448 : 526.18109 : 1"
       inkscape:persp3d-origin="372.04724 : 350.78739 : 1"
       id="perspective10" />
  </defs>
  <sodipodi:namedview
     id="base"
     pagecolor="#ffffff"
     bordercolor="#666666"
     borderopacity="1.0"
     gridtolerance="10000"
     guidetolerance="10"
     objecttolerance="10"
     inkscape:pageopacity="0.0"
     inkscape:pageshadow="2"
     inkscape:zoom="11.313709"
     inkscape:cx="57.733767"
     inkscape:cy="33.07905"
     inkscape:document-units="px"
     inkscape:current-layer="layer1"
     showgrid="false"
     showguides="false"
     inkscape:guide-bbox="true"
     inkscape:window-width="1920"
     inkscape:window-height="1150"
     inkscape:window-x="0"
     inkscape:window-y="0" />
  <metadata
     id="metadata7">
    <rdf:RDF>
      <cc:Work
         rdf:about="">
        <dc:format>image/svg+xml</dc:format>
        <dc:type
           rdf:resource="http://purl.org/dc/dcmitype/StillImage" />
      </cc:Work>
    </rdf:RDF>
  </metadata>
  <g
     inkscape:label="Layer 1"
     inkscape:groupmode="layer"
     id="layer1"
     transform="translate(-373.51219,-150.47134)">
    <path
       style="font-size:12px;font-style:normal;font-weight:normal;fill:#000000;fill-opacity:1;stroke:none;stroke-width:1px;stroke-linecap:butt;stroke-linejoin:miter;stroke-opacity:1;font-family:Bitstream Vera Sans"
       d="M 373.51219,150.47134 L 373.51219,157.44009 L 421.51219,157.44009 L 421.51219,156.00259 C 421.41144,155.97618 421.31538,155.94704 421.19969,155.90884 L 421.19969,155.34634 C 421.30965,155.40292 421.41141,155.432 421.51219,155.47134 L 421.51219,154.31509 C 421.48197,154.29246 421.44218,154.27632 421.41844,154.25259 C 421.27586,154.10806 421.19969,153.90689 421.19969,153.65884 C 421.19969,153.34439 421.2993,153.11001 421.51219,152.94009 L 421.51219,150.47134 L 373.51219,150.47134 z M 417.41844,151.44009 L 418.82469,151.44009 L 418.82469,154.84634 C 418.8247,155.08853 418.8618,155.28579 418.94969,155.40884 C 419.03954,155.53188 419.18211,155.56509 419.35594,155.56509 L 419.98094,155.56509 L 419.98094,156.03384 L 419.29344,156.03384 C 418.97117,156.03384 418.72117,155.92837 418.54344,155.72134 C 418.36765,155.51431 418.29343,155.22525 418.29344,154.84634 L 418.29344,151.87759 L 417.41844,151.87759 L 417.41844,151.44009 z M 392.26219,151.47134 L 392.79344,151.47134 L 392.79344,153.25259 C 392.88915,153.06509 393.03563,152.9108 393.19969,152.81509 C 393.36375,152.71744 393.53758,152.69009 393.76219,152.69009 C 394.09617,152.69009 394.34813,152.78189 394.51219,153.00259 C 394.6782,153.22134 394.76219,153.55728 394.76219,154.00259 L 394.76219,156.03384 L 394.23094,156.03384 L 394.23094,154.00259 C 394.23094,153.70768 394.1782,153.48502 394.07469,153.34634 C 393.97118,153.20768 393.79539,153.15884 393.57469,153.15884 C 393.32274,153.15884 393.14891,153.22915 393.01219,153.40884 C 392.87743,153.58657 392.79344,153.8561 392.79344,154.19009 L 392.79344,156.03384 L 392.26219,156.03384 L 392.26219,151.47134 z M 411.48094,151.47134 L 411.76219,151.47134 L 411.76219,152.15884 C 411.91649,152.16861 412.07274,152.19205 412.23094,152.22134 C 412.38914,152.25065 412.56687,152.29556 412.73094,152.34634 L 412.73094,152.84634 C 412.56493,152.76236 412.38914,152.70376 412.23094,152.65884 C 412.07469,152.61197 411.91844,152.5729 411.76219,152.56509 L 411.76219,153.84634 C 412.16453,153.90689 412.48875,154.03189 412.69969,154.22134 C 412.91063,154.4108 413.01219,154.63931 413.01219,154.94009 C 413.0122,155.24088 412.89695,155.48892 412.66844,155.69009 C 412.44187,155.89127 412.12938,156.01626 411.76219,156.03384 L 411.76219,156.90884 L 411.48094,156.90884 L 411.48094,156.03384 C 411.28172,156.02407 411.08445,155.98501 410.88719,155.94009 C 410.69187,155.89516 410.48484,155.83267 410.29344,155.75259 L 410.29344,155.25259 C 410.48876,155.37369 410.68992,155.43814 410.88719,155.50259 C 411.0864,155.56705 411.28758,155.62369 411.48094,155.62759 L 411.48094,154.28384 C 411.09032,154.22329 410.77195,154.08658 410.57469,153.90884 C 410.37742,153.73111 410.29344,153.51431 410.29344,153.22134 C 410.29345,152.9147 410.40086,152.65298 410.60594,152.47134 C 410.81297,152.28775 411.10789,152.18619 411.48094,152.15884 L 411.48094,151.47134 z M 403.79344,151.81509 L 404.32469,151.81509 L 404.32469,152.75259 L 405.54344,152.75259 L 405.54344,153.15884 L 404.32469,153.15884 L 404.32469,154.94009 C 404.32468,155.18228 404.35789,155.37564 404.44969,155.47134 C 404.54149,155.56704 404.72117,155.59634 404.94969,155.59634 L 405.54344,155.59634 L 405.54344,156.03384 L 404.88719,156.03384 C 404.48289,156.03384 404.1782,155.94595 404.01219,155.78384 C 403.84617,155.62173 403.79344,155.33658 403.79344,154.94009 L 403.79344,153.15884 L 402.88719,153.15884 L 402.88719,152.75259 L 403.79344,152.75259 L 403.79344,151.81509 z M 390.19969,151.94009 C 390.60789,151.9401 390.9243,152.08658 391.16844,152.34634 C 391.41259,152.60611 391.54344,152.94009 391.54344,153.37759 L 391.54344,155.62759 L 391.10594,155.62759 L 391.10594,155.31509 C 391.03368,155.43814 390.92234,155.52994 390.79344,155.59634 C 390.66648,155.66275 390.54735,155.69009 390.38719,155.69009 C 390.07274,155.69009 389.81297,155.58267 389.60594,155.34634 C 389.40086,155.11001 389.29344,154.80728 389.29344,154.44009 C 389.29345,154.0729 389.40086,153.77018 389.60594,153.53384 C 389.81297,153.29752 390.07274,153.1901 390.38719,153.19009 C 390.54344,153.1901 390.66257,153.21549 390.79344,153.28384 C 390.92429,153.3522 391.03563,153.44595 391.10594,153.56509 L 391.10594,153.37759 C 391.10594,153.07291 391.02781,152.84439 390.85594,152.65884 C 390.68406,152.4733 390.45165,152.37759 390.16844,152.37759 C 389.68797,152.37759 389.29734,152.56509 389.01219,152.94009 C 388.72898,153.31314 388.60594,153.80142 388.60594,154.44009 C 388.60594,155.08267 388.75242,155.59048 389.07469,155.97134 C 389.39696,156.3522 389.82079,156.56509 390.35594,156.56509 C 390.46141,156.56509 390.56297,156.55337 390.66844,156.53384 C 390.77391,156.5143 390.90085,156.4811 391.01219,156.44009 L 391.13719,156.81509 C 391.01414,156.86392 390.91453,156.91665 390.79344,156.94009 C 390.67431,156.96353 390.53172,156.97134 390.41844,156.97134 C 389.72117,156.97134 389.17235,156.73892 388.76219,156.28384 C 388.35399,155.82876 388.16844,155.21353 388.16844,154.44009 C 388.16845,153.67837 388.3325,153.07877 388.69969,152.62759 C 389.06688,152.17642 389.5825,151.9401 390.19969,151.94009 z M 411.48094,152.56509 C 411.27782,152.5729 411.09618,152.64322 410.98094,152.75259 C 410.86766,152.86197 410.82469,153.0065 410.82469,153.19009 C 410.82469,153.35806 410.87548,153.49869 410.98094,153.59634 C 411.08837,153.694 411.26219,153.75064 411.48094,153.78384 L 411.48094,152.56509 z M 379.10594,152.69009 C 379.28173,152.69009 379.47508,152.68814 379.63719,152.72134 C 379.7993,152.75259 379.94969,152.81314 380.10594,152.87759 L 380.10594,153.40884 C 379.95164,153.319 379.79344,153.23502 379.63719,153.19009 C 379.48094,153.14517 379.33055,153.12759 379.16844,153.12759 C 378.9243,153.12759 378.72703,153.17251 378.60594,153.25259 C 378.4868,153.33071 378.41844,153.43423 378.41844,153.59634 C 378.41844,153.74282 378.48485,153.86783 378.57469,153.94009 C 378.66453,154.01236 378.87352,154.09048 379.23094,154.15884 L 379.44969,154.19009 C 379.71726,154.24087 379.93797,154.35025 380.07469,154.50259 C 380.21336,154.65494 380.26219,154.8522 380.26219,155.09634 C 380.26219,155.42056 380.1489,155.66274 379.91844,155.84634 C 379.68797,156.02798 379.35984,156.12759 378.94969,156.12759 C 378.78758,156.12759 378.62743,156.10025 378.44969,156.06509 C 378.27196,156.03189 378.09422,155.9772 377.88719,155.90884 L 377.88719,155.34634 C 378.08837,155.44986 378.2661,155.5436 378.44969,155.59634 C 378.63329,155.64712 378.81687,155.65884 378.98094,155.65884 C 379.21922,155.65884 379.41258,155.62955 379.54344,155.53384 C 379.67431,155.43619 379.73094,155.30141 379.73094,155.12759 C 379.73094,154.87759 379.4907,154.69205 379.01219,154.59634 L 378.98094,154.59634 L 378.79344,154.56509 C 378.48289,154.50454 378.24852,154.39517 378.10594,154.25259 C 377.96336,154.10806 377.88719,153.90689 377.88719,153.65884 C 377.88719,153.34439 377.9868,153.11001 378.19969,152.94009 C 378.41258,152.76822 378.71141,152.69009 379.10594,152.69009 z M 382.44969,152.69009 C 382.55516,152.67056 382.64501,152.69009 382.76219,152.69009 C 383.18016,152.69009 383.52195,152.81314 383.76219,153.09634 C 384.00437,153.37955 384.10594,153.76236 384.10594,154.25259 L 384.10594,154.53384 L 381.79344,154.53384 C 381.79344,154.89126 381.88914,155.18228 382.07469,155.37759 C 382.26219,155.5729 382.51609,155.65884 382.85594,155.65884 C 383.02781,155.65884 383.19969,155.65102 383.38719,155.59634 C 383.57469,155.54165 383.76805,155.45767 383.98094,155.34634 L 383.98094,155.87759 C 383.77587,155.96157 383.57859,156.02407 383.38719,156.06509 C 383.19773,156.10805 383.03367,156.12759 382.85594,156.12759 C 382.34617,156.12759 381.95555,155.96353 381.66844,155.65884 C 381.38133,155.3522 381.23094,154.94595 381.23094,154.40884 C 381.23094,153.88541 381.35594,153.47134 381.63719,153.15884 C 381.84813,152.92446 382.13329,152.74868 382.44969,152.69009 z M 387.13719,152.69009 C 387.27,152.69009 387.39695,152.68814 387.51219,152.72134 C 387.62742,152.75455 387.75047,152.80729 387.85594,152.87759 L 387.85594,153.44009 C 387.7407,153.35024 387.63133,153.26236 387.51219,153.22134 C 387.39306,153.18032 387.24852,153.15885 387.10594,153.15884 C 386.77,153.15885 386.53368,153.29165 386.35594,153.50259 C 386.17821,153.71353 386.07469,154.01041 386.07469,154.40884 L 386.07469,156.03384 L 385.54344,156.03384 L 385.54344,152.75259 L 386.07469,152.75259 L 386.07469,153.40884 C 386.16453,153.17642 386.29539,153.00064 386.48094,152.87759 C 386.66844,152.75259 386.88133,152.69009 387.13719,152.69009 z M 396.79344,152.69009 C 396.89379,152.67166 396.99217,152.69009 397.10594,152.69009 C 397.56101,152.69009 397.89696,152.83267 398.13719,153.12759 C 398.37938,153.42251 398.51218,153.85025 398.51219,154.40884 C 398.51218,154.96939 398.37743,155.39516 398.13719,155.69009 C 397.89696,155.98305 397.56296,156.12759 397.10594,156.12759 C 396.65086,156.12759 396.31492,155.98305 396.07469,155.69009 C 395.83445,155.39516 395.69969,154.96939 395.69969,154.40884 C 395.69969,153.85025 395.83445,153.42251 396.07469,153.12759 C 396.25486,152.9064 396.49242,152.74539 396.79344,152.69009 z M 400.76219,152.69009 C 400.93797,152.69009 401.13133,152.68814 401.29344,152.72134 C 401.45556,152.75259 401.60594,152.81314 401.76219,152.87759 L 401.76219,153.40884 C 401.6079,153.319 401.44969,153.23502 401.29344,153.19009 C 401.1372,153.14517 400.9868,153.12759 400.82469,153.12759 C 400.58056,153.12759 400.38328,153.17251 400.26219,153.25259 C 400.14305,153.33071 400.07469,153.43423 400.07469,153.59634 C 400.07469,153.74282 400.1411,153.86783 400.23094,153.94009 C 400.32078,154.01236 400.52977,154.09048 400.88719,154.15884 L 401.10594,154.19009 C 401.37351,154.24087 401.59422,154.35025 401.73094,154.50259 C 401.86961,154.65494 401.91844,154.8522 401.91844,155.09634 C 401.91844,155.42056 401.80515,155.66274 401.57469,155.84634 C 401.34422,156.02798 401.01609,156.12759 400.60594,156.12759 C 400.44383,156.12759 400.28368,156.10025 400.10594,156.06509 C 399.92821,156.03189 399.75047,155.9772 399.54344,155.90884 L 399.54344,155.34634 C 399.74461,155.44986 399.92235,155.5436 400.10594,155.59634 C 400.28954,155.64712 400.47312,155.65884 400.63719,155.65884 C 400.87548,155.65884 401.06883,155.62955 401.19969,155.53384 C 401.33056,155.43619 401.38719,155.30141 401.38719,155.12759 C 401.3872,154.87759 401.14695,154.69205 400.66844,154.59634 L 400.63719,154.59634 L 400.44969,154.56509 C 400.13915,154.50454 399.90477,154.39517 399.76219,154.25259 C 399.61961,154.10806 399.54344,153.90689 399.54344,153.65884 C 399.54344,153.34439 399.64305,153.11001 399.85594,152.94009 C 400.06883,152.76822 400.36766,152.69009 400.76219,152.69009 z M 374.19969,152.75259 L 374.76219,152.75259 L 374.76219,154.78384 C 374.76219,155.07876 374.81493,155.30142 374.91844,155.44009 C 375.02391,155.57876 375.16844,155.65884 375.38719,155.65884 C 375.6411,155.65884 375.84617,155.55532 375.98094,155.37759 C 376.1157,155.1979 376.16843,154.96158 376.16844,154.62759 L 376.16844,152.75259 L 376.73094,152.75259 L 376.73094,156.03384 L 376.16844,156.03384 L 376.16844,155.53384 C 376.07273,155.72329 375.95945,155.87369 375.79344,155.97134 C 375.62937,156.069 375.42039,156.12759 375.19969,156.12759 C 374.86375,156.12759 374.61375,156.00259 374.44969,155.78384 C 374.28563,155.56314 374.19969,155.22915 374.19969,154.78384 L 374.19969,152.75259 z M 382.73094,153.12759 C 382.47117,153.12759 382.2739,153.20572 382.10594,153.37759 C 381.93797,153.54947 381.82469,153.79166 381.79344,154.09634 L 383.57469,154.09634 C 383.56687,153.77994 383.49852,153.54166 383.35594,153.37759 C 383.21531,153.21158 382.99656,153.12759 382.73094,153.12759 z M 397.10594,153.12759 C 396.8325,153.12759 396.62157,153.22721 396.48094,153.44009 C 396.34032,153.65299 396.26219,153.99088 396.26219,154.40884 C 396.26219,154.82486 396.34032,155.1315 396.48094,155.34634 C 396.62157,155.55923 396.8325,155.65884 397.10594,155.65884 C 397.38132,155.65884 397.59031,155.55923 397.73094,155.34634 C 397.87157,155.1315 397.94968,154.82486 397.94969,154.40884 C 397.94968,153.99088 397.87156,153.65299 397.73094,153.44009 C 397.59032,153.22721 397.38132,153.12759 397.10594,153.12759 z M 390.41844,153.59634 C 390.20945,153.59634 390.04539,153.694 389.91844,153.84634 C 389.79344,153.99674 389.73094,154.18814 389.73094,154.44009 C 389.73094,154.694 389.79344,154.8815 389.91844,155.03384 C 390.04539,155.18423 390.20945,155.28384 390.41844,155.28384 C 390.62742,155.28384 390.82469,155.18423 390.94969,155.03384 C 391.07469,154.8815 391.13719,154.694 391.13719,154.44009 C 391.13719,154.18814 391.07469,153.99674 390.94969,153.84634 C 390.82469,153.694 390.62742,153.59634 390.41844,153.59634 z M 411.76219,154.34634 L 411.76219,155.59634 C 411.97703,155.59048 412.14109,155.55337 412.26219,155.44009 C 412.38328,155.32681 412.44969,155.16666 412.44969,154.97134 C 412.4497,154.7897 412.40281,154.63345 412.29344,154.53384 C 412.18406,154.43228 412.00047,154.38345 411.76219,154.34634 z M 373.51219,157.97134 L 373.51219,164.94009 L 399.19969,164.94009 L 399.19969,157.97134 L 373.51219,157.97134 z M 415.04344,159.15884 L 414.07469,159.37759 L 414.07469,159.90884 L 415.04344,159.69009 L 415.04344,163.03384 L 414.13719,163.03384 L 414.13719,163.53384 L 416.54344,163.53384 L 416.54344,163.03384 L 415.63719,163.03384 L 415.63719,159.15884 L 415.04344,159.15884 z M 379.91844,160.19009 C 380.05125,160.19009 380.1782,160.18814 380.29344,160.22134 C 380.40867,160.25455 380.53172,160.30729 380.63719,160.37759 L 380.63719,160.94009 C 380.52195,160.85024 380.41258,160.76236 380.29344,160.72134 C 380.1743,160.68032 380.02977,160.65885 379.88719,160.65884 C 379.55125,160.65885 379.31493,160.79165 379.13719,161.00259 C 378.95946,161.21353 378.85594,161.51041 378.85594,161.90884 L 378.85594,163.53384 L 378.32469,163.53384 L 378.32469,160.25259 L 378.85594,160.25259 L 378.85594,160.90884 C 378.94578,160.67642 379.07664,160.50064 379.26219,160.37759 C 379.44969,160.25259 379.66258,160.19009 379.91844,160.19009 z M 390.76219,160.19009 C 390.895,160.19009 391.02195,160.18814 391.13719,160.22134 C 391.25242,160.25455 391.34421,160.30729 391.44969,160.37759 L 391.44969,160.94009 C 391.33445,160.85024 391.22508,160.76236 391.10594,160.72134 C 390.9868,160.68032 390.87351,160.65885 390.73094,160.65884 C 390.395,160.65885 390.12742,160.79165 389.94969,161.00259 C 389.77196,161.21353 389.66844,161.51041 389.66844,161.90884 L 389.66844,163.53384 L 389.13719,163.53384 L 389.13719,160.25259 L 389.66844,160.25259 L 389.66844,160.90884 C 389.75828,160.67642 389.92039,160.50064 390.10594,160.37759 C 390.29344,160.25259 390.50633,160.19009 390.76219,160.19009 z M 401.57469,160.19009 C 401.31883,160.19009 401.10594,160.25259 400.91844,160.37759 C 400.73289,160.50064 400.60203,160.67642 400.51219,160.90884 L 400.51219,160.25259 L 399.98094,160.25259 L 399.98094,163.53384 L 400.51219,163.53384 L 400.51219,161.90884 C 400.51219,161.51041 400.61571,161.21353 400.79344,161.00259 C 400.97118,160.79165 401.2075,160.65885 401.54344,160.65884 C 401.68602,160.65885 401.83056,160.68032 401.94969,160.72134 C 402.06883,160.76236 402.1782,160.85024 402.29344,160.94009 L 402.29344,160.37759 C 402.18797,160.30729 402.06492,160.25455 401.94969,160.22134 C 401.83445,160.18814 401.7075,160.19009 401.57469,160.19009 z M 380.85594,160.25259 L 381.38719,160.25259 L 381.98094,162.90884 L 382.44969,161.22134 L 382.88719,161.22134 L 383.35594,162.90884 L 383.94969,160.25259 L 384.48094,160.25259 L 383.69969,163.53384 L 383.19969,163.53384 L 382.66844,161.75259 L 382.13719,163.53384 L 381.63719,163.53384 L 380.85594,160.25259 z M 384.79344,160.25259 L 385.41844,160.25259 L 386.26219,161.44009 L 387.13719,160.25259 L 387.76219,160.25259 L 386.57469,161.81509 L 387.85594,163.53384 L 387.23094,163.53384 L 386.26219,162.22134 L 385.32469,163.53384 L 384.69969,163.53384 L 385.98094,161.81509 L 384.79344,160.25259 z M 395.63719,160.25259 L 396.23094,160.25259 L 397.10594,161.44009 L 397.98094,160.25259 L 398.57469,160.25259 L 397.38719,161.81509 L 398.69969,163.53384 L 398.07469,163.53384 L 397.10594,162.22134 L 396.13719,163.53384 L 395.51219,163.53384 L 396.82469,161.81509 L 395.63719,160.25259 z M 406.44969,160.25259 L 407.63719,161.81509 L 406.35594,163.53384 L 406.98094,163.53384 L 407.91844,162.22134 L 408.88719,163.53384 L 409.51219,163.53384 L 408.23094,161.81509 L 409.41844,160.25259 L 408.79344,160.25259 L 407.91844,161.44009 L 407.07469,160.25259 L 406.44969,160.25259 z M 421.13719,160.25259 L 421.13719,162.28384 C 421.13719,162.72915 421.22312,163.06314 421.38719,163.28384 C 421.42349,163.33223 421.46744,163.37054 421.51219,163.40884 L 421.51219,160.25259 L 421.13719,160.25259 z M 374.69969,161.65884 L 376.19969,161.65884 L 376.19969,162.12759 L 374.69969,162.12759 L 374.69969,161.65884 z M 392.73094,161.65884 L 394.26219,161.65884 L 394.26219,162.12759 L 392.73094,162.12759 L 392.73094,161.65884 z M 403.57469,161.65884 L 403.57469,162.12759 L 405.07469,162.12759 L 405.07469,161.65884 L 403.57469,161.65884 z M 392.26219,166.47134 L 392.26219,171.03384 L 392.79344,171.03384 L 392.79344,169.19009 C 392.79344,168.8561 392.87743,168.58657 393.01219,168.40884 C 393.14891,168.22915 393.32274,168.15884 393.57469,168.15884 C 393.79539,168.15884 393.97118,168.20768 394.07469,168.34634 C 394.1782,168.48502 394.23094,168.70768 394.23094,169.00259 L 394.23094,171.03384 L 394.76219,171.03384 L 394.76219,169.00259 C 394.76219,168.55728 394.6782,168.22134 394.51219,168.00259 C 394.34813,167.78189 394.09617,167.69009 393.76219,167.69009 C 393.53758,167.69009 393.36375,167.71744 393.19969,167.81509 C 393.03563,167.9108 392.88915,168.06509 392.79344,168.25259 L 392.79344,166.47134 L 392.26219,166.47134 z M 411.48094,166.47134 L 411.48094,167.15884 C 411.10789,167.18619 410.81297,167.28775 410.60594,167.47134 C 410.40086,167.65298 410.29345,167.9147 410.29344,168.22134 C 410.29344,168.51431 410.37742,168.73111 410.57469,168.90884 C 410.77195,169.08658 411.09032,169.22329 411.48094,169.28384 L 411.48094,170.62759 C 411.28758,170.62369 411.0864,170.56705 410.88719,170.50259 C 410.68992,170.43814 410.48876,170.37369 410.29344,170.25259 L 410.29344,170.75259 C 410.48484,170.83267 410.69187,170.89516 410.88719,170.94009 C 411.08445,170.98501 411.28172,171.02407 411.48094,171.03384 L 411.48094,171.90884 L 411.76219,171.90884 L 411.76219,171.03384 C 412.12938,171.01626 412.44187,170.89127 412.66844,170.69009 C 412.89695,170.48892 413.0122,170.24088 413.01219,169.94009 C 413.01219,169.63931 412.91063,169.4108 412.69969,169.22134 C 412.48875,169.03189 412.16453,168.90689 411.76219,168.84634 L 411.76219,167.56509 C 411.91844,167.5729 412.07469,167.61197 412.23094,167.65884 C 412.38914,167.70376 412.56493,167.76236 412.73094,167.84634 L 412.73094,167.34634 C 412.56687,167.29556 412.38914,167.25065 412.23094,167.22134 C 412.07274,167.19205 411.91649,167.16861 411.76219,167.15884 L 411.76219,166.47134 L 411.48094,166.47134 z M 419.41844,166.47134 C 419.06883,166.47135 418.8032,166.55142 418.63719,166.72134 C 418.47312,166.89126 418.41844,167.17447 418.41844,167.53384 L 418.41844,167.75259 L 417.51219,167.75259 L 417.51219,168.15884 L 418.41844,168.15884 L 418.41844,171.03384 L 418.94969,171.03384 L 418.94969,168.15884 L 420.07469,168.15884 L 420.07469,167.75259 L 418.94969,167.75259 L 418.94969,167.47134 C 418.94968,167.27017 418.96922,167.11197 419.04344,167.03384 C 419.11961,166.95377 419.25633,166.94009 419.44969,166.94009 L 420.07469,166.94009 L 420.07469,166.47134 L 419.41844,166.47134 z M 403.79344,166.81509 L 403.79344,167.75259 L 402.88719,167.75259 L 402.88719,168.15884 L 403.79344,168.15884 L 403.79344,169.94009 C 403.79344,170.33658 403.84617,170.62173 404.01219,170.78384 C 404.1782,170.94595 404.48289,171.03384 404.88719,171.03384 L 405.54344,171.03384 L 405.54344,170.59634 L 404.94969,170.59634 C 404.72117,170.59634 404.54149,170.56704 404.44969,170.47134 C 404.35789,170.37564 404.32468,170.18228 404.32469,169.94009 L 404.32469,168.15884 L 405.54344,168.15884 L 405.54344,167.75259 L 404.32469,167.75259 L 404.32469,166.81509 L 403.79344,166.81509 z M 390.19969,166.94009 C 389.5825,166.9401 389.06688,167.17642 388.69969,167.62759 C 388.3325,168.07877 388.16845,168.67837 388.16844,169.44009 C 388.16844,170.21353 388.35399,170.82876 388.76219,171.28384 C 389.17235,171.73892 389.72117,171.97134 390.41844,171.97134 C 390.53172,171.97133 390.67431,171.96353 390.79344,171.94009 C 390.91453,171.91664 391.01414,171.86392 391.13719,171.81509 L 391.01219,171.44009 C 390.90085,171.4811 390.77391,171.5143 390.66844,171.53384 C 390.56297,171.55337 390.46141,171.56509 390.35594,171.56509 C 389.82079,171.56509 389.39696,171.3522 389.07469,170.97134 C 388.75242,170.59048 388.60594,170.08267 388.60594,169.44009 C 388.60594,168.80142 388.72898,168.31314 389.01219,167.94009 C 389.29734,167.56509 389.68797,167.37759 390.16844,167.37759 C 390.45165,167.37759 390.68406,167.4733 390.85594,167.65884 C 391.02781,167.84439 391.10594,168.07291 391.10594,168.37759 L 391.10594,168.56509 C 391.03563,168.44595 390.92429,168.3522 390.79344,168.28384 C 390.66257,168.21549 390.54344,168.1901 390.38719,168.19009 C 390.07274,168.1901 389.81297,168.29752 389.60594,168.53384 C 389.40086,168.77018 389.29345,169.0729 389.29344,169.44009 C 389.29344,169.80728 389.40086,170.11001 389.60594,170.34634 C 389.81297,170.58267 390.07274,170.69009 390.38719,170.69009 C 390.54735,170.69009 390.66648,170.66275 390.79344,170.59634 C 390.92234,170.52994 391.03368,170.43814 391.10594,170.31509 L 391.10594,170.62759 L 391.54344,170.62759 L 391.54344,168.37759 C 391.54344,167.94009 391.41259,167.60611 391.16844,167.34634 C 390.9243,167.08658 390.60789,166.9401 390.19969,166.94009 z M 411.48094,167.56509 L 411.48094,168.78384 C 411.26219,168.75064 411.08837,168.694 410.98094,168.59634 C 410.87548,168.49869 410.82469,168.35806 410.82469,168.19009 C 410.82469,168.0065 410.86766,167.86197 410.98094,167.75259 C 411.09618,167.64322 411.27782,167.5729 411.48094,167.56509 z M 379.10594,167.69009 C 378.71141,167.69009 378.41258,167.76822 378.19969,167.94009 C 377.9868,168.11001 377.88719,168.34439 377.88719,168.65884 C 377.88719,168.90689 377.96336,169.10806 378.10594,169.25259 C 378.24852,169.39517 378.48289,169.50454 378.79344,169.56509 L 378.98094,169.59634 L 379.01219,169.59634 C 379.4907,169.69205 379.73094,169.87759 379.73094,170.12759 C 379.73094,170.30141 379.67431,170.43619 379.54344,170.53384 C 379.41258,170.62955 379.21922,170.65884 378.98094,170.65884 C 378.81687,170.65884 378.63329,170.64712 378.44969,170.59634 C 378.2661,170.5436 378.08837,170.44986 377.88719,170.34634 L 377.88719,170.90884 C 378.09422,170.9772 378.27196,171.03189 378.44969,171.06509 C 378.62743,171.10025 378.78758,171.12759 378.94969,171.12759 C 379.35984,171.12759 379.68797,171.02798 379.91844,170.84634 C 380.1489,170.66274 380.26219,170.42056 380.26219,170.09634 C 380.26219,169.8522 380.21336,169.65494 380.07469,169.50259 C 379.93797,169.35025 379.71726,169.24087 379.44969,169.19009 L 379.23094,169.15884 C 378.87352,169.09048 378.66453,169.01236 378.57469,168.94009 C 378.48485,168.86783 378.41844,168.74282 378.41844,168.59634 C 378.41844,168.43423 378.4868,168.33071 378.60594,168.25259 C 378.72703,168.17251 378.9243,168.12759 379.16844,168.12759 C 379.33055,168.12759 379.48094,168.14517 379.63719,168.19009 C 379.79344,168.23502 379.95164,168.319 380.10594,168.40884 L 380.10594,167.87759 C 379.94969,167.81314 379.7993,167.75259 379.63719,167.72134 C 379.47508,167.68814 379.28173,167.69009 379.10594,167.69009 z M 382.44969,167.69009 C 382.13329,167.74868 381.84813,167.92446 381.63719,168.15884 C 381.35594,168.47134 381.23094,168.88541 381.23094,169.40884 C 381.23094,169.94595 381.38133,170.3522 381.66844,170.65884 C 381.95555,170.96353 382.34617,171.12759 382.85594,171.12759 C 383.03367,171.12759 383.19773,171.10805 383.38719,171.06509 C 383.57859,171.02407 383.77587,170.96157 383.98094,170.87759 L 383.98094,170.34634 C 383.76805,170.45767 383.57469,170.54165 383.38719,170.59634 C 383.19969,170.65102 383.02781,170.65884 382.85594,170.65884 C 382.51609,170.65884 382.26219,170.5729 382.07469,170.37759 C 381.88914,170.18228 381.79344,169.89126 381.79344,169.53384 L 384.10594,169.53384 L 384.10594,169.25259 C 384.10594,168.76236 384.00437,168.37955 383.76219,168.09634 C 383.52195,167.81314 383.18016,167.69009 382.76219,167.69009 C 382.64501,167.69009 382.55516,167.67056 382.44969,167.69009 z M 387.13719,167.69009 C 386.88133,167.69009 386.66844,167.75259 386.48094,167.87759 C 386.29539,168.00064 386.16453,168.17642 386.07469,168.40884 L 386.07469,167.75259 L 385.54344,167.75259 L 385.54344,171.03384 L 386.07469,171.03384 L 386.07469,169.40884 C 386.07469,169.01041 386.17821,168.71353 386.35594,168.50259 C 386.53368,168.29165 386.77,168.15885 387.10594,168.15884 C 387.24852,168.15885 387.39306,168.18032 387.51219,168.22134 C 387.63133,168.26236 387.7407,168.35024 387.85594,168.44009 L 387.85594,167.87759 C 387.75047,167.80729 387.62742,167.75455 387.51219,167.72134 C 387.39695,167.68814 387.27,167.69009 387.13719,167.69009 z M 396.79344,167.69009 C 396.49242,167.74538 396.25486,167.9064 396.07469,168.12759 C 395.83445,168.42251 395.69969,168.85025 395.69969,169.40884 C 395.69969,169.96939 395.83445,170.39516 396.07469,170.69009 C 396.31492,170.98305 396.65086,171.12759 397.10594,171.12759 C 397.56296,171.12759 397.89696,170.98305 398.13719,170.69009 C 398.37743,170.39516 398.51218,169.96939 398.51219,169.40884 C 398.51218,168.85025 398.37938,168.42251 398.13719,168.12759 C 397.89696,167.83267 397.56101,167.69009 397.10594,167.69009 C 396.99217,167.69009 396.89379,167.67166 396.79344,167.69009 z M 400.76219,167.69009 C 400.36766,167.69009 400.06883,167.76822 399.85594,167.94009 C 399.64305,168.11001 399.54344,168.34439 399.54344,168.65884 C 399.54344,168.90689 399.61961,169.10806 399.76219,169.25259 C 399.90477,169.39517 400.13915,169.50454 400.44969,169.56509 L 400.63719,169.59634 L 400.66844,169.59634 C 401.14695,169.69205 401.3872,169.87759 401.38719,170.12759 C 401.38719,170.30141 401.33056,170.43619 401.19969,170.53384 C 401.06883,170.62955 400.87548,170.65884 400.63719,170.65884 C 400.47312,170.65884 400.28954,170.64712 400.10594,170.59634 C 399.92235,170.5436 399.74461,170.44986 399.54344,170.34634 L 399.54344,170.90884 C 399.75047,170.9772 399.92821,171.03189 400.10594,171.06509 C 400.28368,171.10025 400.44383,171.12759 400.60594,171.12759 C 401.01609,171.12759 401.34422,171.02798 401.57469,170.84634 C 401.80515,170.66274 401.91844,170.42056 401.91844,170.09634 C 401.91844,169.8522 401.86961,169.65494 401.73094,169.50259 C 401.59422,169.35025 401.37351,169.24087 401.10594,169.19009 L 400.88719,169.15884 C 400.52977,169.09048 400.32078,169.01236 400.23094,168.94009 C 400.1411,168.86783 400.07469,168.74282 400.07469,168.59634 C 400.07469,168.43423 400.14305,168.33071 400.26219,168.25259 C 400.38328,168.17251 400.58056,168.12759 400.82469,168.12759 C 400.9868,168.12759 401.1372,168.14517 401.29344,168.19009 C 401.44969,168.23502 401.6079,168.319 401.76219,168.40884 L 401.76219,167.87759 C 401.60594,167.81314 401.45556,167.75259 401.29344,167.72134 C 401.13133,167.68814 400.93797,167.69009 400.76219,167.69009 z M 374.19969,167.75259 L 374.19969,169.78384 C 374.19969,170.22915 374.28563,170.56314 374.44969,170.78384 C 374.61375,171.00259 374.86375,171.12759 375.19969,171.12759 C 375.42039,171.12759 375.62937,171.069 375.79344,170.97134 C 375.95945,170.87369 376.07273,170.72329 376.16844,170.53384 L 376.16844,171.03384 L 376.73094,171.03384 L 376.73094,167.75259 L 376.16844,167.75259 L 376.16844,169.62759 C 376.16843,169.96158 376.1157,170.1979 375.98094,170.37759 C 375.84617,170.55532 375.6411,170.65884 375.38719,170.65884 C 375.16844,170.65884 375.02391,170.57876 374.91844,170.44009 C 374.81493,170.30142 374.76219,170.07876 374.76219,169.78384 L 374.76219,167.75259 L 374.19969,167.75259 z M 382.73094,168.12759 C 382.99656,168.12759 383.21531,168.21158 383.35594,168.37759 C 383.49852,168.54166 383.56687,168.77994 383.57469,169.09634 L 381.79344,169.09634 C 381.82469,168.79166 381.93797,168.54947 382.10594,168.37759 C 382.2739,168.20572 382.47117,168.12759 382.73094,168.12759 z M 397.10594,168.12759 C 397.38132,168.12759 397.59032,168.22721 397.73094,168.44009 C 397.87156,168.65299 397.94968,168.99088 397.94969,169.40884 C 397.94968,169.82486 397.87157,170.1315 397.73094,170.34634 C 397.59031,170.55923 397.38132,170.65884 397.10594,170.65884 C 396.8325,170.65884 396.62157,170.55923 396.48094,170.34634 C 396.34032,170.1315 396.26219,169.82486 396.26219,169.40884 C 396.26219,168.99088 396.34032,168.65299 396.48094,168.44009 C 396.62157,168.22721 396.8325,168.12759 397.10594,168.12759 z M 390.41844,168.59634 C 390.62742,168.59634 390.82469,168.694 390.94969,168.84634 C 391.07469,168.99674 391.13719,169.18814 391.13719,169.44009 C 391.13719,169.694 391.07469,169.8815 390.94969,170.03384 C 390.82469,170.18423 390.62742,170.28384 390.41844,170.28384 C 390.20945,170.28384 390.04539,170.18423 389.91844,170.03384 C 389.79344,169.8815 389.73094,169.694 389.73094,169.44009 C 389.73094,169.18814 389.79344,168.99674 389.91844,168.84634 C 390.04539,168.694 390.20945,168.59634 390.41844,168.59634 z M 411.76219,169.34634 C 412.00047,169.38345 412.18406,169.43228 412.29344,169.53384 C 412.40281,169.63345 412.4497,169.7897 412.44969,169.97134 C 412.44969,170.16666 412.38328,170.32681 412.26219,170.44009 C 412.14109,170.55337 411.97703,170.59048 411.76219,170.59634 L 411.76219,169.34634 z M 420.94969,175.25259 L 420.94969,175.65884 L 421.51219,175.65884 L 421.51219,175.25259 L 420.94969,175.25259 z M 414.98094,181.59634 C 414.79148,181.59634 414.61376,181.61001 414.41844,181.65884 C 414.22508,181.70766 414.02586,181.78189 413.82469,181.87759 L 413.82469,182.47134 C 414.04344,182.34047 414.25437,182.25455 414.44969,182.19009 C 414.645,182.12563 414.83445,182.09634 415.01219,182.09634 C 415.26218,182.09633 415.46336,182.14517 415.60594,182.28384 C 415.75047,182.4225 415.8247,182.63345 415.82469,182.87759 C 415.82469,183.03188 415.76805,183.16665 415.69969,183.31509 C 415.63133,183.46156 415.52,183.67056 415.32469,183.90884 C 415.22118,184.02992 415.03563,184.23892 414.76219,184.53384 C 414.48875,184.82875 414.15867,185.14908 413.79344,185.53384 L 413.79344,186.03384 L 416.44969,186.03384 L 416.44969,185.53384 L 414.44969,185.53384 C 414.87547,185.08657 415.18016,184.75845 415.38719,184.53384 C 415.59618,184.30922 415.74657,184.12955 415.85594,184.00259 C 416.05125,183.77602 416.20751,183.56509 416.29344,183.37759 C 416.38133,183.19008 416.41844,183.00259 416.41844,182.81509 C 416.41844,182.44594 416.2739,182.16665 416.01219,181.94009 C 415.75242,181.71157 415.40867,181.59635 414.98094,181.59634 z M 418.76219,181.59634 C 418.29539,181.59634 417.93798,181.77603 417.69969,182.15884 C 417.46141,182.54165 417.35594,183.0983 417.35594,183.84634 C 417.35594,184.59243 417.46142,185.15103 417.69969,185.53384 C 417.93797,185.91664 418.29539,186.12759 418.76219,186.12759 C 419.22898,186.12758 419.58641,185.91665 419.82469,185.53384 C 420.06492,185.15102 420.16844,184.59244 420.16844,183.84634 C 420.16844,183.09829 420.06492,182.54166 419.82469,182.15884 C 419.58641,181.77602 419.22898,181.59635 418.76219,181.59634 z M 373.88719,181.65884 L 373.88719,186.03384 L 374.44969,186.03384 L 374.44969,182.15884 L 375.23094,184.47134 L 375.66844,184.47134 L 376.44969,182.15884 L 376.44969,186.03384 L 377.01219,186.03384 L 377.01219,181.65884 L 376.19969,181.65884 L 375.44969,183.87759 L 374.69969,181.65884 L 373.88719,181.65884 z M 420.98094,181.65884 L 420.98094,182.15884 L 421.51219,182.15884 L 421.51219,181.65884 L 420.98094,181.65884 z M 418.57469,182.06509 C 418.63488,182.04652 418.69334,182.06509 418.76219,182.06509 C 419.03953,182.06509 419.25243,182.20571 419.38719,182.50259 C 419.52391,182.79945 419.57468,183.23892 419.57469,183.84634 C 419.57468,184.4518 419.52392,184.92446 419.38719,185.22134 C 419.25242,185.5182 419.03953,185.65884 418.76219,185.65884 C 418.48679,185.65883 418.27391,185.51821 418.13719,185.22134 C 418.00242,184.92445 417.94969,184.45181 417.94969,183.84634 C 417.94969,183.23891 418.00242,182.79946 418.13719,182.50259 C 418.23973,182.27992 418.39415,182.12075 418.57469,182.06509 z M 378.82469,182.69009 C 378.50829,182.74867 378.25438,182.92446 378.04344,183.15884 C 377.76219,183.47133 377.60594,183.88541 377.60594,184.40884 C 377.60594,184.94594 377.75633,185.3522 378.04344,185.65884 C 378.33055,185.96352 378.72117,186.12759 379.23094,186.12759 C 379.40867,186.12758 379.60399,186.10805 379.79344,186.06509 C 379.98485,186.02406 380.18211,185.96157 380.38719,185.87759 L 380.38719,185.34634 C 380.1743,185.45766 379.98094,185.54165 379.79344,185.59634 C 379.60594,185.65101 379.40281,185.65884 379.23094,185.65884 C 378.89109,185.65883 378.63719,185.5729 378.44969,185.37759 C 378.26415,185.18227 378.16844,184.89126 378.16844,184.53384 L 380.51219,184.53384 L 380.51219,184.25259 C 380.51218,183.76235 380.37939,183.37955 380.13719,183.09634 C 379.89696,182.81313 379.58641,182.69009 379.16844,182.69009 C 379.05126,182.69008 378.93016,182.67056 378.82469,182.69009 z M 382.07469,182.69009 C 382.01952,182.7057 381.96727,182.75259 381.91844,182.78384 C 381.82273,182.84438 381.73289,182.91665 381.66844,183.03384 L 381.66844,182.75259 L 381.16844,182.75259 L 381.16844,186.03384 L 381.66844,186.03384 L 381.66844,184.15884 C 381.66844,183.71157 381.7075,183.43423 381.76219,183.31509 C 381.81883,183.19399 381.90086,183.12759 382.04344,183.12759 C 382.18797,183.12758 382.30125,183.17447 382.35594,183.28384 C 382.41258,183.39321 382.4497,183.69009 382.44969,184.15884 L 382.44969,186.03384 L 382.91844,186.03384 L 382.91844,184.15884 C 382.91844,183.71157 382.95555,183.43423 383.01219,183.31509 C 383.07078,183.19399 383.16845,183.12759 383.32469,183.12759 C 383.46141,183.12758 383.55517,183.17056 383.60594,183.28384 C 383.65868,183.39516 383.69968,183.69595 383.69969,184.15884 L 383.69969,186.03384 L 384.19969,186.03384 L 384.19969,184.12759 C 384.19969,183.56313 384.12156,183.17447 384.01219,182.97134 C 383.90477,182.76626 383.74462,182.69009 383.48094,182.69009 C 383.33641,182.69008 383.20945,182.71548 383.10594,182.78384 C 383.00438,182.85023 382.92234,182.95572 382.85594,183.09634 C 382.80125,182.95766 382.70555,182.8522 382.60594,182.78384 C 382.50828,182.71547 382.37938,182.69009 382.23094,182.69009 C 382.16942,182.69008 382.12987,182.67446 382.07469,182.69009 z M 385.91844,182.90884 L 385.91844,183.81509 L 386.63719,183.81509 L 386.63719,182.90884 L 385.91844,182.90884 z M 379.13719,183.12759 C 379.40281,183.12758 379.59031,183.21158 379.73094,183.37759 C 379.87351,183.54165 379.97313,183.77994 379.98094,184.09634 L 378.19969,184.09634 C 378.23094,183.79165 378.31297,183.54947 378.48094,183.37759 C 378.64891,183.20571 378.87742,183.12759 379.13719,183.12759 z M 418.76219,183.44009 C 418.65672,183.44009 418.55712,183.48697 418.48094,183.56509 C 418.40672,183.64321 418.35594,183.73892 418.35594,183.84634 C 418.35594,183.95962 418.40867,184.05338 418.48094,184.12759 C 418.55515,184.2018 418.65281,184.22134 418.76219,184.22134 C 418.87351,184.22133 418.96726,184.20377 419.04344,184.12759 C 419.12156,184.05141 419.16844,183.95572 419.16844,183.84634 C 419.16844,183.73891 419.12156,183.64322 419.04344,183.56509 C 418.96531,183.48696 418.87156,183.4401 418.76219,183.44009 z M 385.91844,185.12759 L 385.91844,186.03384 L 386.63719,186.03384 L 386.63719,185.12759 L 385.91844,185.12759 z M 388.63719,188.97134 L 388.63719,193.53384 L 389.19969,193.53384 L 389.19969,193.12759 C 389.28953,193.2897 389.395,193.41665 389.54344,193.50259 C 389.69383,193.58658 389.87937,193.62759 390.07469,193.62759 C 390.47117,193.62759 390.75437,193.46548 390.98094,193.15884 C 391.20945,192.85024 391.32469,192.41861 391.32469,191.87759 C 391.32469,191.34439 391.23875,190.93032 391.01219,190.62759 C 390.78562,190.3229 390.46921,190.19009 390.07469,190.19009 C 389.87547,190.19009 389.69578,190.22916 389.54344,190.31509 C 389.39305,190.40103 389.28564,190.49869 389.19969,190.65884 L 389.19969,188.97134 L 388.63719,188.97134 z M 397.76219,188.97134 C 397.41258,188.97135 397.14695,189.05142 396.98094,189.22134 C 396.81687,189.39126 396.76219,189.67447 396.76219,190.03384 L 396.76219,190.25259 L 395.85594,190.25259 L 395.85594,190.65884 L 396.76219,190.65884 L 396.76219,193.53384 L 397.29344,193.53384 L 397.29344,190.65884 L 398.41844,190.65884 L 398.41844,190.25259 L 397.29344,190.25259 L 397.29344,189.97134 C 397.29343,189.77017 397.31297,189.61197 397.38719,189.53384 C 397.46336,189.45377 397.60008,189.44009 397.79344,189.44009 L 398.41844,189.44009 L 398.41844,188.97134 L 397.76219,188.97134 z M 401.38719,188.97134 C 401.03758,188.97135 400.77196,189.05142 400.60594,189.22134 C 400.44188,189.39126 400.35595,189.67447 400.35594,190.03384 L 400.35594,190.25259 L 399.48094,190.25259 L 399.48094,190.65884 L 400.35594,190.65884 L 400.35594,193.53384 L 400.88719,193.53384 L 400.88719,190.65884 L 402.01219,190.65884 L 402.01219,190.25259 L 400.88719,190.25259 L 400.88719,189.97134 C 400.88719,189.77017 400.93798,189.61197 401.01219,189.53384 C 401.08836,189.45377 401.22507,189.44009 401.41844,189.44009 L 402.01219,189.44009 L 402.01219,188.97134 L 401.38719,188.97134 z M 379.85594,189.15884 L 377.54344,194.09634 L 378.10594,194.09634 L 380.41844,189.15884 L 379.85594,189.15884 z M 415.94969,189.15884 L 413.63719,194.09634 L 414.19969,194.09634 L 416.51219,189.15884 L 415.94969,189.15884 z M 382.41844,190.09634 L 382.41844,191.40884 L 381.10594,191.40884 L 381.10594,191.90884 L 382.41844,191.90884 L 382.41844,193.19009 L 382.91844,193.19009 L 382.91844,191.90884 L 384.23094,191.90884 L 384.23094,191.40884 L 382.91844,191.40884 L 382.91844,190.09634 L 382.41844,190.09634 z M 404.10594,190.19009 C 403.78954,190.24868 403.50438,190.42446 403.29344,190.65884 C 403.01219,190.97134 402.8872,191.38541 402.88719,191.90884 C 402.88719,192.44595 403.03758,192.8522 403.32469,193.15884 C 403.6118,193.46353 404.00242,193.62759 404.51219,193.62759 C 404.68992,193.62759 404.85398,193.60805 405.04344,193.56509 C 405.23484,193.52407 405.43211,193.46157 405.63719,193.37759 L 405.63719,192.84634 C 405.4243,192.95767 405.23094,193.04165 405.04344,193.09634 C 404.85594,193.15102 404.68406,193.15884 404.51219,193.15884 C 404.17234,193.15884 403.91845,193.0729 403.73094,192.87759 C 403.54539,192.68228 403.4497,192.39126 403.44969,192.03384 L 405.76219,192.03384 L 405.76219,191.75259 C 405.76219,191.26236 405.66063,190.87955 405.41844,190.59634 C 405.1782,190.31314 404.83641,190.19009 404.41844,190.19009 C 404.30126,190.19009 404.21141,190.17056 404.10594,190.19009 z M 408.79344,190.19009 C 408.53758,190.19009 408.32469,190.25259 408.13719,190.37759 C 407.95164,190.50064 407.82078,190.67642 407.73094,190.90884 L 407.73094,190.25259 L 407.19969,190.25259 L 407.19969,193.53384 L 407.73094,193.53384 L 407.73094,191.90884 C 407.73094,191.51041 407.83446,191.21353 408.01219,191.00259 C 408.18993,190.79165 408.42625,190.65885 408.76219,190.65884 C 408.90477,190.65885 409.04931,190.68032 409.16844,190.72134 C 409.28758,190.76236 409.39695,190.85024 409.51219,190.94009 L 409.51219,190.37759 C 409.40672,190.30729 409.28367,190.25455 409.16844,190.22134 C 409.0532,190.18814 408.92625,190.19009 408.79344,190.19009 z M 411.60594,190.19009 C 411.21141,190.19009 410.91258,190.26822 410.69969,190.44009 C 410.48679,190.61001 410.3872,190.84439 410.38719,191.15884 C 410.38719,191.40689 410.43211,191.60806 410.57469,191.75259 C 410.71726,191.89517 410.95165,192.00454 411.26219,192.06509 L 411.48094,192.09634 C 411.95945,192.19205 412.19969,192.37759 412.19969,192.62759 C 412.19969,192.80141 412.14305,192.93619 412.01219,193.03384 C 411.88133,193.12955 411.68797,193.15884 411.44969,193.15884 C 411.28563,193.15884 411.13329,193.14712 410.94969,193.09634 C 410.76609,193.0436 410.55711,192.94986 410.35594,192.84634 L 410.35594,193.40884 C 410.56297,193.4772 410.77196,193.53189 410.94969,193.56509 C 411.12742,193.60025 411.28757,193.62759 411.44969,193.62759 C 411.85984,193.62759 412.18797,193.52798 412.41844,193.34634 C 412.64891,193.16274 412.76218,192.92056 412.76219,192.59634 C 412.76218,192.3522 412.68212,192.15494 412.54344,192.00259 C 412.40672,191.85025 412.21727,191.74087 411.94969,191.69009 L 411.73094,191.65884 C 411.37351,191.59048 411.13328,191.51236 411.04344,191.44009 C 410.95359,191.36783 410.91844,191.24282 410.91844,191.09634 C 410.91844,190.93423 410.9868,190.83071 411.10594,190.75259 C 411.22704,190.67251 411.39305,190.62759 411.63719,190.62759 C 411.7993,190.62759 411.98094,190.64517 412.13719,190.69009 C 412.29344,190.73502 412.42039,190.819 412.57469,190.90884 L 412.57469,190.37759 C 412.41844,190.31314 412.26805,190.25259 412.10594,190.22134 C 411.94383,190.18814 411.78173,190.19009 411.60594,190.19009 z M 418.79344,190.19009 C 418.45397,190.24722 418.16503,190.39907 417.94969,190.62759 C 417.66453,190.93228 417.51219,191.36978 417.51219,191.90884 C 417.51219,192.44791 417.66453,192.85415 417.94969,193.15884 C 418.2368,193.46353 418.62938,193.62759 419.13719,193.62759 C 419.29735,193.62759 419.4536,193.60805 419.60594,193.56509 C 419.76024,193.52407 419.93015,193.46157 420.07469,193.37759 L 420.07469,192.81509 C 419.94773,192.93618 419.78562,193.00649 419.63719,193.06509 C 419.48875,193.12173 419.32469,193.15884 419.13719,193.15884 C 418.80125,193.15884 418.53953,193.06509 418.35594,192.84634 C 418.1743,192.62564 418.10594,192.31314 418.10594,191.90884 C 418.10594,191.50259 418.1743,191.1901 418.35594,190.97134 C 418.53758,190.7526 418.7993,190.62759 419.13719,190.62759 C 419.31883,190.62759 419.49461,190.6647 419.63719,190.72134 C 419.78172,190.77798 419.93211,190.87564 420.07469,191.00259 L 420.07469,190.44009 C 419.92234,190.35416 419.75633,190.29361 419.60594,190.25259 C 419.45555,190.21158 419.29539,190.19009 419.13719,190.19009 C 419.01024,190.19009 418.9066,190.17104 418.79344,190.19009 z M 392.26219,190.25259 L 392.26219,192.28384 C 392.26219,192.72915 392.34812,193.06314 392.51219,193.28384 C 392.67625,193.50259 392.92625,193.62759 393.26219,193.62759 C 393.48289,193.62759 393.66063,193.569 393.82469,193.47134 C 393.99071,193.37369 394.13524,193.22329 394.23094,193.03384 L 394.23094,193.53384 L 394.76219,193.53384 L 394.76219,190.25259 L 394.23094,190.25259 L 394.23094,192.12759 C 394.23094,192.46158 394.14696,192.6979 394.01219,192.87759 C 393.87743,193.05532 393.70359,193.15884 393.44969,193.15884 C 393.23093,193.15884 393.05516,193.07876 392.94969,192.94009 C 392.84617,192.80142 392.79344,192.57876 392.79344,192.28384 L 392.79344,190.25259 L 392.26219,190.25259 z M 421.51219,190.28384 C 421.40906,190.31829 421.31267,190.36564 421.19969,190.40884 L 421.19969,190.94009 C 421.30378,190.88061 421.40894,190.85353 421.51219,190.81509 L 421.51219,190.28384 z M 389.98094,190.62759 C 390.24071,190.62759 390.44188,190.72721 390.57469,190.94009 C 390.7075,191.15299 390.76219,191.49088 390.76219,191.90884 C 390.76219,192.32681 390.7075,192.63345 390.57469,192.84634 C 390.44188,193.05923 390.24071,193.15884 389.98094,193.15884 C 389.71922,193.15884 389.52196,193.06119 389.38719,192.84634 C 389.25242,192.6315 389.1997,192.32291 389.19969,191.90884 C 389.19969,191.49283 389.25243,191.15299 389.38719,190.94009 C 389.52195,190.72525 389.71922,190.62759 389.98094,190.62759 z M 404.38719,190.62759 C 404.65281,190.62759 404.87156,190.71158 405.01219,190.87759 C 405.15477,191.04166 405.22312,191.27994 405.23094,191.59634 L 403.44969,191.59634 C 403.48094,191.29166 403.59422,191.04947 403.76219,190.87759 C 403.93015,190.70572 404.12742,190.62759 404.38719,190.62759 z M 421.51219,191.62759 C 421.44697,191.66527 421.38247,191.7081 421.32469,191.75259 C 421.08055,191.94204 420.94969,192.23111 420.94969,192.59634 C 420.94969,192.91275 421.06298,193.15689 421.26219,193.34634 C 421.33454,193.41442 421.42285,193.45972 421.51219,193.50259 L 421.51219,192.65884 C 421.50211,192.61665 421.48094,192.58108 421.48094,192.53384 C 421.48094,192.4874 421.50245,192.44748 421.51219,192.40884 L 421.51219,191.62759 z M 374.69969,191.65884 L 374.69969,192.12759 L 376.19969,192.12759 L 376.19969,191.65884 L 374.69969,191.65884 z M 375.48094,196.59634 C 375.04539,196.59635 374.71336,196.70376 374.44969,196.94009 C 374.18797,197.17446 374.04344,197.48696 374.04344,197.87759 C 374.04344,198.12023 374.11867,198.30444 374.23094,198.47134 L 375.38719,198.47134 C 375.09618,198.40298 374.86961,198.3229 374.76219,198.22134 C 374.65672,198.11978 374.60595,197.97721 374.60594,197.78384 C 374.60594,197.56315 374.69383,197.3815 374.85594,197.25259 C 375.01805,197.12174 375.23289,197.0651 375.51219,197.06509 C 375.69578,197.0651 375.895,197.10025 376.07469,197.15884 C 376.25633,197.21744 376.42625,197.29361 376.60594,197.40884 L 376.60594,196.81509 C 376.40086,196.73892 376.19775,196.6647 376.01219,196.62759 C 375.82664,196.58853 375.64891,196.59635 375.48094,196.59634 z M 418.60594,196.59634 C 418.41649,196.59635 418.23875,196.61001 418.04344,196.65884 C 417.85008,196.70767 417.65086,196.78189 417.44969,196.87759 L 417.44969,197.47134 C 417.66844,197.34048 417.84813,197.25455 418.04344,197.19009 C 418.23875,197.12564 418.4282,197.09634 418.60594,197.09634 C 418.85594,197.09634 419.05711,197.14517 419.19969,197.28384 C 419.34422,197.42251 419.41844,197.63345 419.41844,197.87759 C 419.41844,198.03189 419.39304,198.16665 419.32469,198.31509 C 419.30741,198.35212 419.25737,198.42685 419.23094,198.47134 L 419.82469,198.47134 C 419.84224,198.43722 419.87219,198.41031 419.88719,198.37759 C 419.97508,198.19009 420.04345,198.00259 420.04344,197.81509 C 420.04344,197.44595 419.89891,197.16665 419.63719,196.94009 C 419.37742,196.71158 419.03367,196.59635 418.60594,196.59634 z M 415.41844,196.65884 L 414.26219,198.47134 L 414.73094,198.47134 L 415.51219,197.19009 L 415.51219,198.47134 L 416.07469,198.47134 L 416.07469,196.65884 L 415.41844,196.65884 z M 421.51219,196.94009 C 421.44555,197.00659 421.38009,197.06984 421.32469,197.15884 C 421.12852,197.474 421.01982,197.91074 420.98094,198.47134 L 421.51219,198.47134 L 421.51219,196.94009 z M 382.60594,197.69009 C 382.43407,197.69009 382.25828,197.68228 382.07469,197.72134 C 381.89305,197.75845 381.68016,197.83267 381.48094,197.90884 L 381.48094,198.44009 C 381.65867,198.33853 381.85594,198.27408 382.04344,198.22134 C 382.23094,198.16861 382.42235,198.12759 382.60594,198.12759 C 382.89305,198.12759 383.10007,198.19595 383.23094,198.31509 C 383.27957,198.35864 383.32715,198.40884 383.35594,198.47134 L 383.88719,198.47134 C 383.85565,198.35551 383.82367,198.23973 383.76219,198.15884 C 383.64305,197.99868 383.4868,197.86392 383.29344,197.78384 C 383.10203,197.70377 382.87743,197.69009 382.60594,197.69009 z M 386.44969,197.69009 C 386.25438,197.69009 386.06883,197.72916 385.91844,197.81509 C 385.77,197.89908 385.66453,197.99674 385.57469,198.15884 L 385.57469,197.75259 L 385.04344,197.75259 L 385.04344,198.47134 L 385.76219,198.47134 C 385.76672,198.46354 385.75746,198.44757 385.76219,198.44009 C 385.89696,198.22525 386.09422,198.12759 386.35594,198.12759 C 386.6157,198.12759 386.81884,198.22721 386.94969,198.44009 C 386.95414,198.44722 386.94542,198.46392 386.94969,198.47134 L 387.57469,198.47134 C 387.52438,198.34542 387.46098,198.22745 387.38719,198.12759 C 387.16258,197.82095 386.84617,197.69009 386.44969,197.69009 z M 377.26219,197.75259 L 377.41844,198.47134 L 377.94969,198.47134 L 377.79344,197.75259 L 377.26219,197.75259 z M 380.32469,197.75259 L 380.16844,198.47134 L 380.69969,198.47134 L 380.85594,197.75259 L 380.32469,197.75259 z M 389.51219,197.90884 L 389.51219,198.47134 L 390.26219,198.47134 L 390.26219,197.90884 L 389.51219,197.90884 z"
       id="text2397" />
  </g>
</svg>
