<?xml version="1.0" encoding="UTF-8" standalone="no"?>
<!-- Created with Inkscape (http://www.inkscape.org/) -->
<svg
   xmlns:dc="http://purl.org/dc/elements/1.1/"
   xmlns:cc="http://creativecommons.org/ns#"
   xmlns:rdf="http://www.w3.org/1999/02/22-rdf-syntax-ns#"
   xmlns:svg="http://www.w3.org/2000/svg"
   xmlns="http://www.w3.org/2000/svg"
   xmlns:xlink="http://www.w3.org/1999/xlink"
   xmlns:sodipodi="http://sodipodi.sourceforge.net/DTD/sodipodi-0.dtd"
   xmlns:inkscape="http://www.inkscape.org/namespaces/inkscape"
   width="48"
   height="47.999996"
   id="svg2"
   sodipodi:version="0.32"
   inkscape:version="0.46"
   sodipodi:docname="pan.svg"
   inkscape:output_extension="org.inkscape.output.svg.inkscape"
   version="1.0">
  <defs
     id="defs4">
    <linearGradient
       id="linearGradient3236">
      <stop
         style="stop-color:#00a72b;stop-opacity:1;"
         offset="0"
         id="stop3238" />
      <stop
         style="stop-color:#5eff88;stop-opacity:1;"
         offset="1"
         id="stop3240" />
    </linearGradient>
    <linearGradient
       id="linearGradient3226">
      <stop
         style="stop-color:#000000;stop-opacity:1;"
         offset="0"
         id="stop3228" />
      <stop
         id="stop3234"
         offset="0.5"
         style="stop-color:#000000;stop-opacity:0;" />
      <stop
         style="stop-color:#000000;stop-opacity:1;"
         offset="1"
         id="stop3230" />
    </linearGradient>
    <linearGradient
       id="linearGradient3211">
      <stop
         style="stop-color:#5ec4ff;stop-opacity:1;"
         offset="0"
         id="stop3213" />
      <stop
         id="stop3219"
         offset="1"
         style="stop-color:#0069a7;stop-opacity:1;" />
    </linearGradient>
    <inkscape:perspective
       sodipodi:type="inkscape:persp3d"
       inkscape:vp_x="0 : 526.18109 : 1"
       inkscape:vp_y="0 : 1000 : 0"
       inkscape:vp_z="744.09448 : 526.18109 : 1"
       inkscape:persp3d-origin="372.04724 : 350.78739 : 1"
       id="perspective10" />
    <linearGradient
       inkscape:collect="always"
       xlink:href="#linearGradient3236"
       id="linearGradient3262"
       gradientUnits="userSpaceOnUse"
       gradientTransform="matrix(0,-1,1,0,233.23077,564.90185)"
       spreadMethod="reflect"
       x1="374.96841"
       y1="194.166"
       x2="399.08545"
       y2="194.166" />
    <radialGradient
       inkscape:collect="always"
       xlink:href="#linearGradient3211"
       id="radialGradient3264"
       gradientUnits="userSpaceOnUse"
       gradientTransform="matrix(2.0182592,0,0,2.0182592,-403.36366,-165.51281)"
       cx="393.6178"
       cy="159.71791"
       fx="393.6178"
       fy="159.71791"
       r="25.54685" />
    <linearGradient
       inkscape:collect="always"
       xlink:href="#linearGradient3236"
       id="linearGradient3266"
       gradientUnits="userSpaceOnUse"
       spreadMethod="reflect"
       x1="374.96841"
       y1="194.166"
       x2="399.08545"
       y2="194.166" />
  </defs>
  <sodipodi:namedview
     id="base"
     pagecolor="#ffffff"
     bordercolor="#666666"
     borderopacity="1.0"
     gridtolerance="10000"
     guidetolerance="10"
     objecttolerance="10"
     inkscape:pageopacity="0.0"
     inkscape:pageshadow="2"
     inkscape:zoom="15.88205"
     inkscape:cx="25.254149"
     inkscape:cy="22.54117"
     inkscape:document-units="px"
     inkscape:current-layer="layer1"
     showgrid="false"
     showguides="true"
     inkscape:guide-bbox="true"
     inkscape:window-width="1920"
     inkscape:window-height="1150"
     inkscape:window-x="0"
     inkscape:window-y="0" />
  <metadata
     id="metadata7">
    <rdf:RDF>
      <cc:Work
         rdf:about="">
        <dc:format>image/svg+xml</dc:format>
        <dc:type
           rdf:resource="http://purl.org/dc/dcmitype/StillImage" />
      </cc:Work>
    </rdf:RDF>
  </metadata>
  <g
     inkscape:label="Layer 1"
     inkscape:groupmode="layer"
     id="layer1"
     transform="translate(-373.51219,-150.47134)">
    <g
       id="g3257"
       transform="matrix(0.824885,0,0,0.8250419,65.40759,34.724161)">
      <path
         id="path3244"
         d="M 423.10577,182.83935 C 423.10787,182.97699 423.1289,183.11369 423.16827,183.2456 L 424.60577,188.58935 C 424.61515,188.62093 424.62558,188.6522 424.63702,188.6831 C 424.63659,188.70393 424.63659,188.72477 424.63702,188.7456 C 424.64695,188.76667 424.65737,188.78751 424.66827,188.8081 C 424.67689,188.85019 424.68732,188.8919 424.69952,188.9331 C 424.71741,188.98631 424.73828,189.03848 424.76202,189.08935 C 424.78167,189.12137 424.80252,189.15264 424.82452,189.1831 C 424.8339,189.21468 424.84433,189.24595 424.85577,189.27685 C 424.86603,189.28742 424.87645,189.29784 424.88702,189.3081 C 424.89728,189.31867 424.9077,189.32909 424.91827,189.33935 C 424.9282,189.36042 424.93862,189.38126 424.94952,189.40185 C 424.95978,189.41242 424.9702,189.42284 424.98077,189.4331 C 424.99103,189.44367 425.00145,189.45409 425.01202,189.46435 C 425.02195,189.48542 425.03237,189.50626 425.04327,189.52685 C 425.06386,189.53775 425.0847,189.54817 425.10577,189.5581 C 425.12598,189.57954 425.14683,189.60039 425.16827,189.6206 C 425.17853,189.63117 425.18895,189.64159 425.19952,189.65185 C 425.23042,189.66329 425.26169,189.67372 425.29327,189.6831 C 425.30353,189.69367 425.31395,189.70409 425.32452,189.71435 C 425.34511,189.72525 425.36595,189.73567 425.38702,189.7456 C 425.39728,189.75617 425.4077,189.76659 425.41827,189.77685 C 425.42853,189.78742 425.43895,189.79784 425.44952,189.8081 C 425.47035,189.80853 425.49119,189.80853 425.51202,189.8081 C 425.52228,189.81867 425.5327,189.82909 425.54327,189.83935 C 425.55369,189.83946 425.5641,189.83946 425.57452,189.83935 C 425.58494,189.83946 425.59535,189.83946 425.60577,189.83935 C 425.63667,189.85079 425.66794,189.86122 425.69952,189.8706 C 425.70978,189.88117 425.7202,189.89159 425.73077,189.90185 C 425.7516,189.90228 425.77244,189.90228 425.79327,189.90185 C 425.82417,189.91329 425.85544,189.92372 425.88702,189.9331 C 425.90785,189.93353 425.92869,189.93353 425.94952,189.9331 C 425.97035,189.93353 425.99119,189.93353 426.01202,189.9331 C 426.02244,189.93321 426.03285,189.93321 426.04327,189.9331 C 426.05369,189.93321 426.0641,189.93321 426.07452,189.9331 C 426.09535,189.93353 426.11619,189.93353 426.13702,189.9331 C 426.15785,189.93353 426.17869,189.93353 426.19952,189.9331 C 426.20994,189.93321 426.22035,189.93321 426.23077,189.9331 C 426.2516,189.93353 426.27244,189.93353 426.29327,189.9331 C 426.3141,189.93353 426.33494,189.93353 426.35577,189.9331 C 426.38735,189.92372 426.41862,189.91329 426.44952,189.90185 C 426.4811,189.89247 426.51237,189.88204 426.54327,189.8706 C 426.57485,189.86122 426.60612,189.85079 426.63702,189.83935 C 426.64744,189.83946 426.65785,189.83946 426.66827,189.83935 C 426.68934,189.82942 426.71018,189.819 426.73077,189.8081 C 426.76235,189.79872 426.79362,189.78829 426.82452,189.77685 C 426.83509,189.76659 426.84551,189.75617 426.85577,189.7456 C 426.9454,189.69197 427.02919,189.62913 427.10577,189.5581 C 427.11634,189.54784 427.12676,189.53742 427.13702,189.52685 C 427.14759,189.51659 427.15801,189.50617 427.16827,189.4956 C 427.18971,189.47539 427.21056,189.45454 427.23077,189.4331 C 427.24134,189.42284 427.25176,189.41242 427.26202,189.40185 C 427.28402,189.37139 427.30487,189.34012 427.32452,189.3081 C 427.33509,189.29784 427.34551,189.28742 427.35577,189.27685 L 431.26202,185.40185 C 431.84882,184.81505 431.84882,183.86365 431.26202,183.27685 C 430.67522,182.69005 429.72382,182.69005 429.13702,183.27685 L 428.57452,183.83935 C 429.78618,178.01258 430.57452,172.05944 430.57452,165.8706 C 430.57452,159.67707 429.78802,153.67877 428.57452,147.83935 L 429.13702,148.40185 C 429.72382,148.98865 430.67522,148.98865 431.26202,148.40185 C 431.84882,147.81505 431.84882,146.86365 431.26202,146.27685 L 427.32452,142.3706 L 427.23077,142.2456 C 427.22051,142.23503 427.21009,142.22461 427.19952,142.21435 C 427.1891,142.21424 427.17869,142.21424 427.16827,142.21435 C 427.15834,142.19328 427.14792,142.17244 427.13702,142.15185 C 427.11643,142.14095 427.09559,142.13053 427.07452,142.1206 C 427.07463,142.11018 427.07463,142.09977 427.07452,142.08935 C 427.05393,142.07845 427.03309,142.06803 427.01202,142.0581 C 427.00176,142.04753 426.99134,142.03711 426.98077,142.02685 C 426.97051,142.01628 426.96009,142.00586 426.94952,141.9956 C 426.92893,141.9847 426.90809,141.97428 426.88702,141.96435 C 426.87676,141.95378 426.86634,141.94336 426.85577,141.9331 C 426.84535,141.93299 426.83494,141.93299 426.82452,141.9331 C 426.80393,141.9222 426.78309,141.91178 426.76202,141.90185 C 426.75176,141.89128 426.74134,141.88086 426.73077,141.8706 C 426.72035,141.87049 426.70994,141.87049 426.69952,141.8706 C 426.67893,141.8597 426.65809,141.84928 426.63702,141.83935 C 426.61643,141.82845 426.59559,141.81803 426.57452,141.8081 C 426.54362,141.79666 426.51235,141.78623 426.48077,141.77685 C 426.47035,141.77674 426.45994,141.77674 426.44952,141.77685 C 426.41862,141.76541 426.38735,141.75498 426.35577,141.7456 C 426.33494,141.74517 426.3141,141.74517 426.29327,141.7456 C 426.28285,141.74549 426.27244,141.74549 426.26202,141.7456 C 426.24119,141.74517 426.22035,141.74517 426.19952,141.7456 C 426.17869,141.74517 426.15785,141.74517 426.13702,141.7456 C 426.1266,141.74549 426.11619,141.74549 426.10577,141.7456 C 426.08494,141.74517 426.0641,141.74517 426.04327,141.7456 C 426.03285,141.74549 426.02244,141.74549 426.01202,141.7456 C 425.99119,141.74517 425.97035,141.74517 425.94952,141.7456 C 425.92845,141.75553 425.90761,141.76595 425.88702,141.77685 C 425.8766,141.77674 425.86619,141.77674 425.85577,141.77685 C 425.83494,141.77642 425.8141,141.77642 425.79327,141.77685 C 425.78285,141.77674 425.77244,141.77674 425.76202,141.77685 C 425.74095,141.78678 425.72011,141.7972 425.69952,141.8081 C 425.6891,141.80799 425.67869,141.80799 425.66827,141.8081 C 425.63669,141.81748 425.60542,141.82791 425.57452,141.83935 C 425.55345,141.84928 425.53261,141.8597 425.51202,141.8706 C 425.48044,141.87998 425.44917,141.89041 425.41827,141.90185 C 425.4077,141.91211 425.39728,141.92253 425.38702,141.9331 C 425.3766,141.93299 425.36619,141.93299 425.35577,141.9331 C 425.3452,141.94336 425.33478,141.95378 425.32452,141.96435 C 425.31395,141.97461 425.30353,141.98503 425.29327,141.9956 C 425.2827,142.00586 425.27228,142.01628 425.26202,142.02685 C 425.2516,142.02674 425.24119,142.02674 425.23077,142.02685 C 425.2202,142.03711 425.20978,142.04753 425.19952,142.0581 C 425.18895,142.06836 425.17853,142.07878 425.16827,142.08935 C 425.15785,142.08924 425.14744,142.08924 425.13702,142.08935 C 425.12612,142.10994 425.1157,142.13078 425.10577,142.15185 C 425.0952,142.16211 425.08478,142.17253 425.07452,142.1831 C 425.05345,142.19303 425.03261,142.20345 425.01202,142.21435 C 425.00145,142.22461 424.99103,142.23503 424.98077,142.2456 C 424.9702,142.25586 424.95978,142.26628 424.94952,142.27685 C 424.93895,142.28711 424.92853,142.29753 424.91827,142.3081 C 424.90737,142.32869 424.89695,142.34953 424.88702,142.3706 C 424.87645,142.38086 424.86603,142.39128 424.85577,142.40185 C 424.8452,142.41211 424.83478,142.42253 424.82452,142.4331 C 424.81308,142.464 424.80265,142.49527 424.79327,142.52685 C 424.7827,142.53711 424.77228,142.54753 424.76202,142.5581 C 424.74982,142.5993 424.73939,142.64101 424.73077,142.6831 C 424.7202,142.69336 424.70978,142.70378 424.69952,142.71435 C 424.69909,142.73518 424.69909,142.75602 424.69952,142.77685 C 424.6891,142.77674 424.67869,142.77674 424.66827,142.77685 C 424.66816,142.78727 424.66816,142.79768 424.66827,142.8081 C 424.66816,142.81852 424.66816,142.82893 424.66827,142.83935 C 424.66816,142.84977 424.66816,142.86018 424.66827,142.8706 L 424.63702,142.9956 C 424.62558,143.0265 424.61515,143.05777 424.60577,143.08935 L 424.60577,143.15185 L 423.16827,148.4331 C 422.92953,149.15126 423.2631,149.93479 423.94624,150.26048 C 424.62939,150.58616 425.44814,150.352 425.85577,149.71435 C 426.86386,154.96209 427.57452,160.33222 427.57452,165.8706 C 427.57452,171.42432 426.86933,176.77444 425.85577,182.02685 C 425.49165,181.47817 424.81228,181.2311 424.18076,181.41769 C 423.54924,181.60427 423.11324,182.18089 423.10577,182.83935 z"
         style="fill:url(#linearGradient3262);fill-opacity:1;stroke:none;stroke-width:3;stroke-linecap:round;stroke-linejoin:round;stroke-miterlimit:4;stroke-dashoffset:0;stroke-opacity:1" />
      <path
         sodipodi:nodetypes="cscscscsc"
         d="M 421.63714,188.41744 C 414.43274,190.34698 406.85384,191.38619 399.04344,191.38619 C 391.23304,191.38619 383.68544,190.34698 376.48094,188.41744 C 374.5514,181.21293 373.51219,173.66533 373.51219,165.85493 C 373.51219,158.04453 374.5514,150.46564 376.48094,143.26124 C 383.68544,141.3317 391.23304,140.29249 399.04344,140.29249 C 406.85384,140.29249 414.43274,141.3317 421.63714,143.26124 C 423.56668,150.46574 424.60589,158.01334 424.60589,165.82374 C 424.60589,173.63414 423.56668,181.21304 421.63714,188.41744 z"
         style="fill:url(#radialGradient3264);fill-opacity:1;stroke:none;stroke-width:3;stroke-linecap:round;stroke-linejoin:round;stroke-miterlimit:4;stroke-dashoffset:0;stroke-opacity:1"
         id="path3191" />
      <path
         id="path3200"
         d="M 382.0625,189.875 C 381.92486,189.8771 381.78816,189.89813 381.65625,189.9375 L 376.3125,191.375 C 376.28092,191.38438 376.24965,191.39481 376.21875,191.40625 C 376.19792,191.40582 376.17708,191.40582 376.15625,191.40625 C 376.13518,191.41618 376.11434,191.4266 376.09375,191.4375 C 376.05166,191.44612 376.00995,191.45655 375.96875,191.46875 C 375.91554,191.48664 375.86337,191.50751 375.8125,191.53125 C 375.78048,191.5509 375.74921,191.57175 375.71875,191.59375 C 375.68717,191.60313 375.6559,191.61356 375.625,191.625 C 375.61443,191.63526 375.60401,191.64568 375.59375,191.65625 C 375.58318,191.66651 375.57276,191.67693 375.5625,191.6875 C 375.54143,191.69743 375.52059,191.70785 375.5,191.71875 C 375.48943,191.72901 375.47901,191.73943 375.46875,191.75 C 375.45818,191.76026 375.44776,191.77068 375.4375,191.78125 C 375.41643,191.79118 375.39559,191.8016 375.375,191.8125 C 375.3641,191.83309 375.35368,191.85393 375.34375,191.875 C 375.32231,191.89521 375.30146,191.91606 375.28125,191.9375 C 375.27068,191.94776 375.26026,191.95818 375.25,191.96875 C 375.23856,191.99965 375.22813,192.03092 375.21875,192.0625 C 375.20818,192.07276 375.19776,192.08318 375.1875,192.09375 C 375.1766,192.11434 375.16618,192.13518 375.15625,192.15625 C 375.14568,192.16651 375.13526,192.17693 375.125,192.1875 C 375.11443,192.19776 375.10401,192.20818 375.09375,192.21875 C 375.09332,192.23958 375.09332,192.26042 375.09375,192.28125 C 375.08318,192.29151 375.07276,192.30193 375.0625,192.3125 C 375.06239,192.32292 375.06239,192.33333 375.0625,192.34375 C 375.06239,192.35417 375.06239,192.36458 375.0625,192.375 C 375.05106,192.4059 375.04063,192.43717 375.03125,192.46875 C 375.02068,192.47901 375.01026,192.48943 375,192.5 C 374.99957,192.52083 374.99957,192.54167 375,192.5625 C 374.98856,192.5934 374.97813,192.62467 374.96875,192.65625 C 374.96832,192.67708 374.96832,192.69792 374.96875,192.71875 C 374.96832,192.73958 374.96832,192.76042 374.96875,192.78125 C 374.96864,192.79167 374.96864,192.80208 374.96875,192.8125 C 374.96864,192.82292 374.96864,192.83333 374.96875,192.84375 C 374.96832,192.86458 374.96832,192.88542 374.96875,192.90625 C 374.96832,192.92708 374.96832,192.94792 374.96875,192.96875 C 374.96864,192.97917 374.96864,192.98958 374.96875,193 C 374.96832,193.02083 374.96832,193.04167 374.96875,193.0625 C 374.96832,193.08333 374.96832,193.10417 374.96875,193.125 C 374.97813,193.15658 374.98856,193.18785 375,193.21875 C 375.00938,193.25033 375.01981,193.2816 375.03125,193.3125 C 375.04063,193.34408 375.05106,193.37535 375.0625,193.40625 C 375.06239,193.41667 375.06239,193.42708 375.0625,193.4375 C 375.07243,193.45857 375.08285,193.47941 375.09375,193.5 C 375.10313,193.53158 375.11356,193.56285 375.125,193.59375 C 375.13526,193.60432 375.14568,193.61474 375.15625,193.625 C 375.20988,193.71463 375.27272,193.79842 375.34375,193.875 C 375.35401,193.88557 375.36443,193.89599 375.375,193.90625 C 375.38526,193.91682 375.39568,193.92724 375.40625,193.9375 C 375.42646,193.95894 375.44731,193.97979 375.46875,194 C 375.47901,194.01057 375.48943,194.02099 375.5,194.03125 C 375.53046,194.05325 375.56173,194.0741 375.59375,194.09375 C 375.60401,194.10432 375.61443,194.11474 375.625,194.125 L 379.5,198.03125 C 380.0868,198.61805 381.0382,198.61805 381.625,198.03125 C 382.2118,197.44445 382.2118,196.49305 381.625,195.90625 L 381.0625,195.34375 C 386.88927,196.55541 392.84241,197.34375 399.03125,197.34375 C 405.22478,197.34375 411.22308,196.55725 417.0625,195.34375 L 416.5,195.90625 C 415.9132,196.49305 415.9132,197.44445 416.5,198.03125 C 417.0868,198.61805 418.0382,198.61805 418.625,198.03125 L 422.53125,194.09375 L 422.65625,194 C 422.66682,193.98974 422.67724,193.97932 422.6875,193.96875 C 422.68761,193.95833 422.68761,193.94792 422.6875,193.9375 C 422.70857,193.92757 422.72941,193.91715 422.75,193.90625 C 422.7609,193.88566 422.77132,193.86482 422.78125,193.84375 C 422.79167,193.84386 422.80208,193.84386 422.8125,193.84375 C 422.8234,193.82316 422.83382,193.80232 422.84375,193.78125 C 422.85432,193.77099 422.86474,193.76057 422.875,193.75 C 422.88557,193.73974 422.89599,193.72932 422.90625,193.71875 C 422.91715,193.69816 422.92757,193.67732 422.9375,193.65625 C 422.94807,193.64599 422.95849,193.63557 422.96875,193.625 C 422.96886,193.61458 422.96886,193.60417 422.96875,193.59375 C 422.97965,193.57316 422.99007,193.55232 423,193.53125 C 423.01057,193.52099 423.02099,193.51057 423.03125,193.5 C 423.03136,193.48958 423.03136,193.47917 423.03125,193.46875 C 423.04215,193.44816 423.05257,193.42732 423.0625,193.40625 C 423.0734,193.38566 423.08382,193.36482 423.09375,193.34375 C 423.10519,193.31285 423.11562,193.28158 423.125,193.25 C 423.12511,193.23958 423.12511,193.22917 423.125,193.21875 C 423.13644,193.18785 423.14687,193.15658 423.15625,193.125 C 423.15668,193.10417 423.15668,193.08333 423.15625,193.0625 C 423.15636,193.05208 423.15636,193.04167 423.15625,193.03125 C 423.15668,193.01042 423.15668,192.98958 423.15625,192.96875 C 423.15668,192.94792 423.15668,192.92708 423.15625,192.90625 C 423.15636,192.89583 423.15636,192.88542 423.15625,192.875 C 423.15668,192.85417 423.15668,192.83333 423.15625,192.8125 C 423.15636,192.80208 423.15636,192.79167 423.15625,192.78125 C 423.15668,192.76042 423.15668,192.73958 423.15625,192.71875 C 423.14632,192.69768 423.1359,192.67684 423.125,192.65625 C 423.12511,192.64583 423.12511,192.63542 423.125,192.625 C 423.12543,192.60417 423.12543,192.58333 423.125,192.5625 C 423.12511,192.55208 423.12511,192.54167 423.125,192.53125 C 423.11507,192.51018 423.10465,192.48934 423.09375,192.46875 C 423.09386,192.45833 423.09386,192.44792 423.09375,192.4375 C 423.08437,192.40592 423.07394,192.37465 423.0625,192.34375 C 423.05257,192.32268 423.04215,192.30184 423.03125,192.28125 C 423.02187,192.24967 423.01144,192.2184 423,192.1875 C 422.98974,192.17693 422.97932,192.16651 422.96875,192.15625 C 422.96886,192.14583 422.96886,192.13542 422.96875,192.125 C 422.95849,192.11443 422.94807,192.10401 422.9375,192.09375 C 422.92724,192.08318 422.91682,192.07276 422.90625,192.0625 C 422.89599,192.05193 422.88557,192.04151 422.875,192.03125 C 422.87511,192.02083 422.87511,192.01042 422.875,192 C 422.86474,191.98943 422.85432,191.97901 422.84375,191.96875 C 422.83349,191.95818 422.82307,191.94776 422.8125,191.9375 C 422.81261,191.92708 422.81261,191.91667 422.8125,191.90625 C 422.79191,191.89535 422.77107,191.88493 422.75,191.875 C 422.73974,191.86443 422.72932,191.85401 422.71875,191.84375 C 422.70882,191.82268 422.6984,191.80184 422.6875,191.78125 C 422.67724,191.77068 422.66682,191.76026 422.65625,191.75 C 422.64599,191.73943 422.63557,191.72901 422.625,191.71875 C 422.61474,191.70818 422.60432,191.69776 422.59375,191.6875 C 422.57316,191.6766 422.55232,191.66618 422.53125,191.65625 C 422.52099,191.64568 422.51057,191.63526 422.5,191.625 C 422.48974,191.61443 422.47932,191.60401 422.46875,191.59375 C 422.43785,191.58231 422.40658,191.57188 422.375,191.5625 C 422.36474,191.55193 422.35432,191.54151 422.34375,191.53125 C 422.30255,191.51905 422.26084,191.50862 422.21875,191.5 C 422.20849,191.48943 422.19807,191.47901 422.1875,191.46875 C 422.16667,191.46832 422.14583,191.46832 422.125,191.46875 C 422.12511,191.45833 422.12511,191.44792 422.125,191.4375 C 422.11458,191.43739 422.10417,191.43739 422.09375,191.4375 C 422.08333,191.43739 422.07292,191.43739 422.0625,191.4375 C 422.05208,191.43739 422.04167,191.43739 422.03125,191.4375 L 421.90625,191.40625 C 421.87535,191.39481 421.84408,191.38438 421.8125,191.375 L 421.75,191.375 L 416.46875,189.9375 C 415.75059,189.69876 414.96706,190.03233 414.64137,190.71547 C 414.31569,191.39862 414.54985,192.21737 415.1875,192.625 C 409.93976,193.63309 404.56963,194.34375 399.03125,194.34375 C 393.47753,194.34375 388.12741,193.63856 382.875,192.625 C 383.42368,192.26088 383.67075,191.58151 383.48416,190.94999 C 383.29758,190.31847 382.72096,189.88247 382.0625,189.875 z"
         style="fill:url(#linearGradient3266);fill-opacity:1;stroke:none;stroke-width:3;stroke-linecap:round;stroke-linejoin:round;stroke-miterlimit:4;stroke-dashoffset:0;stroke-opacity:1" />
    </g>
  </g>
</svg>
