<?xml version="1.0" encoding="UTF-8" standalone="no"?>
<!-- Created with Inkscape (http://www.inkscape.org/) -->
<svg
   xmlns:dc="http://purl.org/dc/elements/1.1/"
   xmlns:cc="http://creativecommons.org/ns#"
   xmlns:rdf="http://www.w3.org/1999/02/22-rdf-syntax-ns#"
   xmlns:svg="http://www.w3.org/2000/svg"
   xmlns="http://www.w3.org/2000/svg"
   xmlns:sodipodi="http://sodipodi.sourceforge.net/DTD/sodipodi-0.dtd"
   xmlns:inkscape="http://www.inkscape.org/namespaces/inkscape"
   width="48"
   height="47.999996"
   id="svg2"
   sodipodi:version="0.32"
   inkscape:version="0.46"
   sodipodi:docname="do-not-pan.svg"
   inkscape:output_extension="org.inkscape.output.svg.inkscape"
   version="1.0"
   inkscape:export-filename="/scratchbox/users/nix/home/nix/src/xterm/osso-xterm-svn/new-xterm/pixmaps/do-not-pan.png"
   inkscape:export-xdpi="90.000008"
   inkscape:export-ydpi="90.000008">
  <defs
     id="defs4">
    <linearGradient
       id="linearGradient3236">
      <stop
         style="stop-color:#00a72b;stop-opacity:1;"
         offset="0"
         id="stop3238" />
      <stop
         style="stop-color:#5eff88;stop-opacity:1;"
         offset="1"
         id="stop3240" />
    </linearGradient>
    <linearGradient
       id="linearGradient3226">
      <stop
         style="stop-color:#000000;stop-opacity:1;"
         offset="0"
         id="stop3228" />
      <stop
         id="stop3234"
         offset="0.5"
         style="stop-color:#000000;stop-opacity:0;" />
      <stop
         style="stop-color:#000000;stop-opacity:1;"
         offset="1"
         id="stop3230" />
    </linearGradient>
    <linearGradient
       id="linearGradient3211">
      <stop
         style="stop-color:#5ec4ff;stop-opacity:1;"
         offset="0"
         id="stop3213" />
      <stop
         id="stop3219"
         offset="1"
         style="stop-color:#0069a7;stop-opacity:1;" />
    </linearGradient>
    <inkscape:perspective
       sodipodi:type="inkscape:persp3d"
       inkscape:vp_x="0 : 526.18109 : 1"
       inkscape:vp_y="0 : 1000 : 0"
       inkscape:vp_z="744.09448 : 526.18109 : 1"
       inkscape:persp3d-origin="372.04724 : 350.78739 : 1"
       id="perspective10" />
  </defs>
  <sodipodi:namedview
     id="base"
     pagecolor="#ffffff"
     bordercolor="#666666"
     borderopacity="1.0"
     gridtolerance="10000"
     guidetolerance="10"
     objecttolerance="10"
     inkscape:pageopacity="0.0"
     inkscape:pageshadow="2"
     inkscape:zoom="11.313708"
     inkscape:cx="8.3513656"
     inkscape:cy="26.156342"
     inkscape:document-units="px"
     inkscape:current-layer="layer1"
     showgrid="false"
     showguides="false"
     inkscape:guide-bbox="true"
     inkscape:window-width="1920"
     inkscape:window-height="1150"
     inkscape:window-x="0"
     inkscape:window-y="0" />
  <metadata
     id="metadata7">
    <rdf:RDF>
      <cc:Work
         rdf:about="">
        <dc:format>image/svg+xml</dc:format>
        <dc:type
           rdf:resource="http://purl.org/dc/dcmitype/StillImage" />
      </cc:Work>
    </rdf:RDF>
  </metadata>
  <g
     inkscape:label="Layer 1"
     inkscape:groupmode="layer"
     id="layer1"
     transform="translate(-373.51219,-150.47134)">
    <rect
       style="opacity:1;fill:#ffffff;fill-opacity:1;stroke:none;stroke-width:7;stroke-linecap:round;stroke-linejoin:round;stroke-miterlimit:4;stroke-dasharray:none;stroke-dashoffset:0;stroke-opacity:1"
       id="rect4021"
       width="48"
       height="48"
       x="373.51218"
       y="150.47133" />
    <path
       style="font-size:12px;font-style:normal;font-weight:normal;fill:#0069a7;fill-opacity:1;stroke:none;stroke-width:1px;stroke-linecap:butt;stroke-linejoin:miter;stroke-opacity:1;font-family:Bitstream Vera Sans"
       d="M 0 0 L 0 9.3125 L 48 9.3125 L 48 7.4375 L 47.90625 7.4375 L 47.90625 4.8125 C 47.906251 4.39844 47.84895 4.08074 47.6875 3.875 C 47.526031 3.66927 47.26042 3.5625 46.9375 3.5625 C 46.549481 3.5625 46.25521 3.69011 46.03125 3.9375 C 45.807291 4.18489 45.6875 4.54167 45.6875 4.96875 L 45.6875 7.4375 L 44.96875 7.4375 L 44.96875 3.0625 L 45.6875 3.0625 L 45.6875 3.71875 C 45.859371 3.45572 46.08072 3.28647 46.3125 3.15625 C 46.546871 3.02605 46.82031 2.9375 47.125 2.9375 C 47.489386 2.9375 47.768797 3.0232422 48 3.1875 L 48 0 L 0 0 z M 8.875 1.34375 L 9.59375 1.34375 L 9.59375 7.4375 L 8.875 7.4375 L 8.875 6.78125 C 8.7239595 7.04167 8.54427 7.21615 8.3125 7.34375 C 8.0833295 7.46875 7.79166 7.53125 7.46875 7.53125 C 6.9401 7.53125 6.52083 7.32812 6.1875 6.90625 C 5.85677 6.48436 5.6875 5.9375 5.6875 5.25 C 5.6875 4.5625 5.85677 4.01563 6.1875 3.59375 C 6.52083 3.17188 6.9401 2.9375 7.46875 2.9375 C 7.79166 2.9375 8.08333 2.9974 8.3125 3.125 C 8.5442695 3.24999 8.72396 3.45834 8.875 3.71875 L 8.875 1.34375 z M 4.5625 1.59375 L 5.25 1.59375 L 3.21875 8.15625 L 2.53125 8.15625 L 4.5625 1.59375 z M 28.96875 1.8125 L 29.6875 1.8125 L 29.6875 3.0625 L 31.1875 3.0625 L 31.1875 3.625 L 29.6875 3.625 L 29.6875 6 C 29.6875 6.35677 29.74739 6.58594 29.84375 6.6875 C 29.9427 6.78907 30.13802 6.8125 30.4375 6.8125 L 31.1875 6.8125 L 31.1875 7.4375 L 30.4375 7.4375 C 29.88281 7.4375 29.49218 7.33072 29.28125 7.125 C 29.07031 6.91666 28.96875 6.54688 28.96875 6 L 28.96875 3.625 L 28.4375 3.625 L 28.4375 3.0625 L 28.96875 3.0625 L 28.96875 1.8125 z M 12.78125 2.9375 C 13.40625 2.9375 13.89322 3.15625 14.25 3.5625 C 14.60676 3.96875 14.78125 4.53125 14.78125 5.25 C 14.78125 5.96614 14.60676 6.52864 14.25 6.9375 C 13.89322 7.34375 13.40625 7.53125 12.78125 7.53125 C 12.15365 7.53125 11.66927 7.34375 11.3125 6.9375 C 10.95833 6.52864 10.78125 5.96614 10.78125 5.25 C 10.78125 4.53125 10.95833 3.96875 11.3125 3.5625 C 11.66927 3.15625 12.15365 2.9375 12.78125 2.9375 z M 21.125 2.9375 C 21.6276 2.9375 22.02343 3.09375 22.28125 3.40625 C 22.53906 3.71615 22.65624 4.17709 22.65625 4.78125 L 22.65625 7.4375 L 21.9375 7.4375 L 21.9375 4.8125 C 21.93749 4.39844 21.84896 4.08074 21.6875 3.875 C 21.52604 3.66927 21.29166 3.5625 20.96875 3.5625 C 20.58072 3.5625 20.28646 3.69011 20.0625 3.9375 C 19.83854 4.18489 19.71875 4.54167 19.71875 4.96875 L 19.71875 7.4375 L 19 7.4375 L 19 3.0625 L 19.71875 3.0625 L 19.71875 3.71875 C 19.89062 3.45572 20.08073 3.28647 20.3125 3.15625 C 20.54687 3.02605 20.82031 2.9375 21.125 2.9375 z M 25.78125 2.9375 C 26.40624 2.9375 26.89323 3.15625 27.25 3.5625 C 27.60677 3.96875 27.81249 4.53125 27.8125 5.25 C 27.81249 5.96614 27.60677 6.52864 27.25 6.9375 C 26.89323 7.34375 26.40624 7.53125 25.78125 7.53125 C 25.15364 7.53125 24.66927 7.34375 24.3125 6.9375 C 23.95834 6.52864 23.78125 5.96614 23.78125 5.25 C 23.78125 4.53125 23.95834 3.96875 24.3125 3.5625 C 24.66927 3.15625 25.15364 2.9375 25.78125 2.9375 z M 37.125 2.9375 C 37.656251 2.9375 38.07551 3.17188 38.40625 3.59375 C 38.739581 4.01563 38.90624 4.5625 38.90625 5.25 C 38.906241 5.9375 38.73958 6.48437 38.40625 6.90625 C 38.075511 7.32811 37.65625 7.53125 37.125 7.53125 C 36.804681 7.53125 36.51302 7.46875 36.28125 7.34375 C 36.052091 7.21615 35.86979 7.04167 35.71875 6.78125 L 35.71875 9.09375 L 35 9.09375 L 35 3.0625 L 35.71875 3.0625 L 35.71875 3.71875 C 35.869791 3.45834 36.05209 3.25 36.28125 3.125 C 36.513021 2.99739 36.80468 2.9375 37.125 2.9375 z M 41.625 2.9375 C 42.257811 2.9375 42.75 3.10938 43.0625 3.4375 C 43.374991 3.76562 43.53124 4.27083 43.53125 4.9375 L 43.53125 7.4375 L 42.8125 7.4375 L 42.8125 6.75 C 42.648431 7.01561 42.43229 7.21615 42.1875 7.34375 C 41.942701 7.46875 41.63541 7.53125 41.28125 7.53125 C 40.833331 7.53125 40.48437 7.40625 40.21875 7.15625 C 39.955731 6.90365 39.8125 6.57813 39.8125 6.15625 C 39.812501 5.66407 39.98438 5.28125 40.3125 5.03125 C 40.643231 4.78125 41.1276 4.65625 41.78125 4.65625 L 42.8125 4.65625 L 42.8125 4.59375 C 42.812501 4.26301 42.6875 4.02344 42.46875 3.84375 C 42.252611 3.66146 41.95573 3.5625 41.5625 3.5625 C 41.312501 3.5625 41.04948 3.59636 40.8125 3.65625 C 40.575521 3.71615 40.375 3.78646 40.15625 3.90625 L 40.15625 3.25 C 40.419271 3.14843 40.65886 3.08073 40.90625 3.03125 C 41.153651 2.97917 41.39062 2.9375 41.625 2.9375 z M 7.375 3.5625 C 7.12012 3.61914 6.91406 3.77344 6.75 4 C 6.53385 4.29947 6.4375 4.72135 6.4375 5.25 C 6.4375 5.77864 6.53385 6.19792 6.75 6.5 C 6.96875 6.79948 7.27604 6.9375 7.65625 6.9375 C 8.03645 6.93749 8.34374 6.79948 8.5625 6.5 C 8.7812395 6.19792 8.875 5.77864 8.875 5.25 C 8.8749995 4.72135 8.78124 4.29948 8.5625 4 C 8.3437395 3.69791 8.03645 3.56251 7.65625 3.5625 C 7.5612 3.5625 7.45996 3.54362 7.375 3.5625 z M 12.78125 3.5625 C 12.39583 3.5625 12.09896 3.69792 11.875 4 C 11.65104 4.29948 11.53125 4.72656 11.53125 5.25 C 11.53125 5.77343 11.6224 6.16666 11.84375 6.46875 C 12.06771 6.76822 12.39323 6.9375 12.78125 6.9375 C 13.16406 6.9375 13.46354 6.77083 13.6875 6.46875 C 13.91145 6.16667 14.03124 5.77083 14.03125 5.25 C 14.03124 4.73177 13.91145 4.30208 13.6875 4 C 13.46354 3.6953 13.16406 3.5625 12.78125 3.5625 z M 25.78125 3.5625 C 25.39583 3.5625 25.09896 3.69792 24.875 4 C 24.65104 4.29948 24.53125 4.72656 24.53125 5.25 C 24.53125 5.77343 24.65364 6.16666 24.875 6.46875 C 25.09895 6.76822 25.39322 6.9375 25.78125 6.9375 C 26.16406 6.9375 26.46354 6.77083 26.6875 6.46875 C 26.91146 6.16667 27.03125 5.77083 27.03125 5.25 C 27.03125 4.73177 26.91146 4.30208 26.6875 4 C 26.46354 3.6953 26.16406 3.5625 25.78125 3.5625 z M 36.65625 3.5625 C 36.401371 3.61914 36.19531 3.77344 36.03125 4 C 35.815101 4.29947 35.71875 4.72135 35.71875 5.25 C 35.718751 5.77864 35.8151 6.19792 36.03125 6.5 C 36.250001 6.79948 36.55729 6.9375 36.9375 6.9375 C 37.317701 6.93749 37.6276 6.79948 37.84375 6.5 C 38.062501 6.19792 38.15625 5.77864 38.15625 5.25 C 38.156251 4.72135 38.0625 4.29948 37.84375 4 C 37.627601 3.69791 37.3177 3.56251 36.9375 3.5625 C 36.842451 3.5625 36.74121 3.54362 36.65625 3.5625 z M 15.75 4.90625 L 17.875 4.90625 L 17.875 5.5625 L 15.75 5.5625 L 15.75 4.90625 z M 31.75 4.90625 L 33.875 4.90625 L 33.875 5.5625 L 31.75 5.5625 L 31.75 4.90625 z M 42.09375 5.21875 C 41.513011 5.21875 41.09896 5.30469 40.875 5.4375 C 40.651041 5.57031 40.53125 5.77344 40.53125 6.09375 C 40.531251 6.34895 40.61458 6.56771 40.78125 6.71875 C 40.950521 6.86719 41.17968 6.9375 41.46875 6.9375 C 41.867181 6.93749 42.19791 6.8125 42.4375 6.53125 C 42.679681 6.2474 42.8125 5.84375 42.8125 5.375 L 42.8125 5.21875 L 42.09375 5.21875 z M 0.84375 6.4375 L 1.6875 6.4375 L 1.6875 7.4375 L 0.84375 7.4375 L 0.84375 6.4375 z M 0 10 L 0 19.3125 L 48 19.3125 L 48 10 L 0 10 z M 17.78125 11.34375 L 18.5 11.34375 L 18.5 14.9375 L 20.65625 13.0625 L 21.5625 13.0625 L 19.25 15.09375 L 21.65625 17.4375 L 20.71875 17.4375 L 18.5 15.28125 L 18.5 17.4375 L 17.78125 17.4375 L 17.78125 11.34375 z M 28.625 11.34375 L 29.3125 11.34375 L 29.3125 11.9375 L 28.625 11.9375 C 28.36718 11.93751 28.19531 11.98959 28.09375 12.09375 C 27.99479 12.19792 27.9375 12.38542 27.9375 12.65625 L 27.9375 13.0625 L 29.125 13.0625 L 29.125 13.625 L 27.9375 13.625 L 27.9375 17.4375 L 27.21875 17.4375 L 27.21875 13.625 L 26.53125 13.625 L 26.53125 13.0625 L 27.21875 13.0625 L 27.21875 12.75 C 27.21875 12.26303 27.33593 11.90886 27.5625 11.6875 C 27.78906 11.46355 28.13281 11.34376 28.625 11.34375 z M 29.90625 11.34375 L 30.625 11.34375 L 30.625 12.25 L 29.90625 12.25 L 29.90625 11.34375 z M 32.125 11.34375 L 32.84375 11.34375 L 32.84375 17.4375 L 32.125 17.4375 L 32.125 11.34375 z M 41.8125 11.34375 L 42.53125 11.34375 L 42.53125 12.25 L 41.8125 12.25 L 41.8125 11.34375 z M 4.5625 11.59375 L 5.25 11.59375 L 3.21875 18.15625 L 2.53125 18.15625 L 4.5625 11.59375 z M 6.03125 11.59375 L 7.21875 11.59375 L 8.6875 15.5625 L 10.1875 11.59375 L 11.375 11.59375 L 11.375 17.4375 L 10.59375 17.4375 L 10.59375 12.3125 L 9.09375 16.3125 L 8.3125 16.3125 L 6.8125 12.3125 L 6.8125 17.4375 L 6.03125 17.4375 L 6.03125 11.59375 z M 14.4375 12.9375 C 15.07031 12.9375 15.5625 13.10938 15.875 13.4375 C 16.18749 13.76562 16.34374 14.27083 16.34375 14.9375 L 16.34375 17.4375 L 15.625 17.4375 L 15.625 16.75 C 15.46093 17.01561 15.24479 17.21615 15 17.34375 C 14.7552 17.46875 14.44791 17.53125 14.09375 17.53125 C 13.64583 17.53125 13.29687 17.40625 13.03125 17.15625 C 12.76823 16.90365 12.625 16.57813 12.625 16.15625 C 12.625 15.66407 12.79688 15.28125 13.125 15.03125 C 13.45573 14.78125 13.9401 14.65625 14.59375 14.65625 L 15.625 14.65625 L 15.625 14.59375 C 15.625 14.26301 15.5 14.02344 15.28125 13.84375 C 15.06511 13.66146 14.76823 13.5625 14.375 13.5625 C 14.125 13.5625 13.86198 13.59636 13.625 13.65625 C 13.38802 13.71615 13.1875 13.78646 12.96875 13.90625 L 12.96875 13.25 C 13.23177 13.14843 13.47136 13.08073 13.71875 13.03125 C 13.96615 12.97917 14.20312 12.9375 14.4375 12.9375 z M 24 12.9375 C 24.58854 12.9375 25.0651 13.15105 25.40625 13.53125 C 25.75 13.90886 25.90624 14.41146 25.90625 15.0625 L 25.90625 15.40625 L 22.625 15.40625 C 22.65625 15.90104 22.79688 16.27083 23.0625 16.53125 C 23.33073 16.78905 23.71093 16.9375 24.1875 16.9375 C 24.46354 16.9375 24.71093 16.91146 24.96875 16.84375 C 25.22916 16.77605 25.49479 16.66666 25.75 16.53125 L 25.75 17.21875 C 25.49218 17.32813 25.23958 17.41146 24.96875 17.46875 C 24.69791 17.52604 24.40364 17.53125 24.125 17.53125 C 23.42708 17.53125 22.87761 17.34375 22.46875 16.9375 C 22.0625 16.53125 21.875 15.97396 21.875 15.28125 C 21.875 14.56509 22.05209 14.01303 22.4375 13.59375 C 22.82552 13.17188 23.34375 12.9375 24 12.9375 z M 36.1875 12.9375 C 36.776031 12.9375 37.22135 13.15105 37.5625 13.53125 C 37.906241 13.90886 38.09375 14.41146 38.09375 15.0625 L 38.09375 15.40625 L 34.78125 15.40625 C 34.812501 15.90104 34.95312 16.27083 35.21875 16.53125 C 35.486971 16.78905 35.86719 16.9375 36.34375 16.9375 C 36.619791 16.9375 36.89843 16.91146 37.15625 16.84375 C 37.416661 16.77605 37.65104 16.66666 37.90625 16.53125 L 37.90625 17.21875 C 37.648441 17.32813 37.39583 17.41146 37.125 17.46875 C 36.854171 17.52604 36.59114 17.53125 36.3125 17.53125 C 35.614581 17.53125 35.0651 17.34375 34.65625 16.9375 C 34.250001 16.53125 34.03125 15.97396 34.03125 15.28125 C 34.031251 14.56509 34.23958 14.01303 34.625 13.59375 C 35.013021 13.17188 35.53124 12.9375 36.1875 12.9375 z M 46.15625 12.9375 C 46.658851 12.9375 47.02344 13.09375 47.28125 13.40625 C 47.539061 13.71615 47.65625 14.17709 47.65625 14.78125 L 47.65625 17.4375 L 46.9375 17.4375 L 46.9375 14.8125 C 46.937501 14.39844 46.8802 14.08074 46.71875 13.875 C 46.557281 13.66927 46.29167 13.5625 45.96875 13.5625 C 45.580731 13.5625 45.28646 13.69011 45.0625 13.9375 C 44.838541 14.18489 44.71875 14.54167 44.71875 14.96875 L 44.71875 17.4375 L 44 17.4375 L 44 13.0625 L 44.71875 13.0625 L 44.71875 13.71875 C 44.890621 13.45572 45.11197 13.28647 45.34375 13.15625 C 45.578121 13.02605 45.85156 12.9375 46.15625 12.9375 z M 29.90625 13.0625 L 30.625 13.0625 L 30.625 17.4375 L 29.90625 17.4375 L 29.90625 13.0625 z M 41.8125 13.0625 L 42.53125 13.0625 L 42.53125 17.4375 L 41.8125 17.4375 L 41.8125 13.0625 z M 24 13.5625 C 23.59896 13.5625 23.30468 13.67969 23.0625 13.90625 C 22.82291 14.13281 22.66145 14.43229 22.625 14.84375 L 25.1875 14.84375 C 25.18228 14.45052 25.09114 14.14063 24.875 13.90625 C 24.66145 13.67187 24.35417 13.5625 24 13.5625 z M 36.1875 13.5625 C 35.786451 13.5625 35.46094 13.67969 35.21875 13.90625 C 34.979171 14.13281 34.84896 14.43229 34.8125 14.84375 L 37.375 14.84375 C 37.369791 14.45052 37.24739 14.14063 37.03125 13.90625 C 36.817711 13.67187 36.54166 13.5625 36.1875 13.5625 z M 14.90625 15.21875 C 14.32551 15.21875 13.91146 15.30469 13.6875 15.4375 C 13.46354 15.57031 13.34375 15.77344 13.34375 16.09375 C 13.34375 16.34895 13.42708 16.56771 13.59375 16.71875 C 13.76302 16.86719 13.99218 16.9375 14.28125 16.9375 C 14.67968 16.93749 15.01041 16.8125 15.25 16.53125 C 15.49218 16.2474 15.625 15.84375 15.625 15.375 L 15.625 15.21875 L 14.90625 15.21875 z M 0.84375 16.4375 L 1.6875 16.4375 L 1.6875 17.4375 L 0.84375 17.4375 L 0.84375 16.4375 z M 39.375 16.4375 L 40.1875 16.4375 L 40.1875 17.4375 L 39.375 17.4375 L 39.375 16.4375 z M 0 19.96875 L 0 29.28125 L 28.21875 29.28125 L 28.21875 19.96875 L 0 19.96875 z M 8.875 21.34375 L 9.59375 21.34375 L 9.59375 27.4375 L 8.875 27.4375 L 8.875 26.78125 C 8.7239595 27.04167 8.54427 27.21615 8.3125 27.34375 C 8.0833295 27.46875 7.79166 27.53125 7.46875 27.53125 C 6.9401 27.53125 6.52083 27.32812 6.1875 26.90625 C 5.85677 26.48436 5.6875 25.9375 5.6875 25.25 C 5.6875 24.5625 5.85677 24.01563 6.1875 23.59375 C 6.52083 23.17188 6.9401 22.9375 7.46875 22.9375 C 7.79166 22.9375 8.08333 22.9974 8.3125 23.125 C 8.5442695 23.24999 8.72396 23.45834 8.875 23.71875 L 8.875 21.34375 z M 4.5625 21.59375 L 5.25 21.59375 L 3.21875 28.15625 L 2.53125 28.15625 L 4.5625 21.59375 z M 28.96875 21.8125 L 28.96875 23.0625 L 28.4375 23.0625 L 28.4375 23.625 L 28.96875 23.625 L 28.96875 26 C 28.96875 26.54688 29.07031 26.91666 29.28125 27.125 C 29.49218 27.33072 29.88281 27.4375 30.4375 27.4375 L 31.1875 27.4375 L 31.1875 26.8125 L 30.4375 26.8125 C 30.13802 26.8125 29.9427 26.78907 29.84375 26.6875 C 29.74739 26.58594 29.6875 26.35677 29.6875 26 L 29.6875 23.625 L 31.1875 23.625 L 31.1875 23.0625 L 29.6875 23.0625 L 29.6875 21.8125 L 28.96875 21.8125 z M 12.78125 22.9375 C 13.40625 22.9375 13.89322 23.15625 14.25 23.5625 C 14.60676 23.96875 14.78125 24.53125 14.78125 25.25 C 14.78125 25.96614 14.60676 26.52864 14.25 26.9375 C 13.89322 27.34375 13.40625 27.53125 12.78125 27.53125 C 12.15365 27.53125 11.66927 27.34375 11.3125 26.9375 C 10.95833 26.52864 10.78125 25.96614 10.78125 25.25 C 10.78125 24.53125 10.95833 23.96875 11.3125 23.5625 C 11.66927 23.15625 12.15365 22.9375 12.78125 22.9375 z M 21.125 22.9375 C 21.6276 22.9375 22.02343 23.09375 22.28125 23.40625 C 22.53906 23.71615 22.65624 24.17709 22.65625 24.78125 L 22.65625 27.4375 L 21.9375 27.4375 L 21.9375 24.8125 C 21.93749 24.39844 21.84896 24.08074 21.6875 23.875 C 21.52604 23.66927 21.29166 23.5625 20.96875 23.5625 C 20.58072 23.5625 20.28646 23.69011 20.0625 23.9375 C 19.83854 24.18489 19.71875 24.54167 19.71875 24.96875 L 19.71875 27.4375 L 19 27.4375 L 19 23.0625 L 19.71875 23.0625 L 19.71875 23.71875 C 19.89062 23.45572 20.08073 23.28647 20.3125 23.15625 C 20.54687 23.02605 20.82031 22.9375 21.125 22.9375 z M 25.78125 22.9375 C 26.40624 22.9375 26.89323 23.15625 27.25 23.5625 C 27.60677 23.96875 27.81249 24.53125 27.8125 25.25 C 27.81249 25.96614 27.60677 26.52864 27.25 26.9375 C 26.89323 27.34375 26.40624 27.53125 25.78125 27.53125 C 25.15364 27.53125 24.66927 27.34375 24.3125 26.9375 C 23.95834 26.52864 23.78125 25.96614 23.78125 25.25 C 23.78125 24.53125 23.95834 23.96875 24.3125 23.5625 C 24.66927 23.15625 25.15364 22.9375 25.78125 22.9375 z M 37.125 22.9375 C 36.804681 22.9375 36.51302 22.99739 36.28125 23.125 C 36.052091 23.25 35.86979 23.45834 35.71875 23.71875 L 35.71875 23.0625 L 35 23.0625 L 35 29.09375 L 35.71875 29.09375 L 35.71875 26.78125 C 35.869791 27.04167 36.05209 27.21615 36.28125 27.34375 C 36.513021 27.46875 36.80468 27.53125 37.125 27.53125 C 37.656251 27.53125 38.07551 27.32811 38.40625 26.90625 C 38.739581 26.48437 38.90624 25.9375 38.90625 25.25 C 38.906241 24.5625 38.73958 24.01563 38.40625 23.59375 C 38.075511 23.17188 37.65625 22.9375 37.125 22.9375 z M 41.625 22.9375 C 41.390621 22.9375 41.15365 22.97917 40.90625 23.03125 C 40.658861 23.08073 40.41927 23.14843 40.15625 23.25 L 40.15625 23.90625 C 40.375001 23.78646 40.57552 23.71615 40.8125 23.65625 C 41.049481 23.59636 41.3125 23.5625 41.5625 23.5625 C 41.955731 23.5625 42.25261 23.66146 42.46875 23.84375 C 42.687501 24.02344 42.8125 24.26301 42.8125 24.59375 L 42.8125 24.65625 L 41.78125 24.65625 C 41.127601 24.65625 40.64323 24.78125 40.3125 25.03125 C 39.984381 25.28125 39.8125 25.66407 39.8125 26.15625 C 39.812501 26.57813 39.95573 26.90365 40.21875 27.15625 C 40.484371 27.40625 40.83333 27.53125 41.28125 27.53125 C 41.635411 27.53125 41.9427 27.46875 42.1875 27.34375 C 42.432291 27.21615 42.64843 27.01561 42.8125 26.75 L 42.8125 27.4375 L 43.53125 27.4375 L 43.53125 24.9375 C 43.531241 24.27083 43.37499 23.76562 43.0625 23.4375 C 42.750001 23.10938 42.25781 22.9375 41.625 22.9375 z M 47.125 22.9375 C 46.820311 22.9375 46.54687 23.02605 46.3125 23.15625 C 46.080721 23.28647 45.85937 23.45572 45.6875 23.71875 L 45.6875 23.0625 L 44.96875 23.0625 L 44.96875 27.4375 L 45.6875 27.4375 L 45.6875 24.96875 C 45.687501 24.54167 45.80729 24.18489 46.03125 23.9375 C 46.255211 23.69011 46.54948 23.5625 46.9375 23.5625 C 47.260421 23.5625 47.52603 23.66927 47.6875 23.875 C 47.848951 24.08074 47.90625 24.39844 47.90625 24.8125 L 47.90625 27.4375 L 48 27.4375 L 48 23.1875 C 47.768797 23.023242 47.489385 22.9375 47.125 22.9375 z M 7.375 23.5625 C 7.12012 23.61914 6.91406 23.77344 6.75 24 C 6.53385 24.29947 6.4375 24.72135 6.4375 25.25 C 6.4375 25.77864 6.53385 26.19792 6.75 26.5 C 6.96875 26.79948 7.27604 26.9375 7.65625 26.9375 C 8.03645 26.93749 8.34374 26.79948 8.5625 26.5 C 8.7812395 26.19792 8.875 25.77864 8.875 25.25 C 8.8749995 24.72135 8.78124 24.29948 8.5625 24 C 8.3437395 23.69791 8.03645 23.56251 7.65625 23.5625 C 7.5612 23.5625 7.45996 23.54362 7.375 23.5625 z M 12.78125 23.5625 C 12.39583 23.5625 12.09896 23.69792 11.875 24 C 11.65104 24.29948 11.53125 24.72656 11.53125 25.25 C 11.53125 25.77343 11.6224 26.16666 11.84375 26.46875 C 12.06771 26.76822 12.39323 26.9375 12.78125 26.9375 C 13.16406 26.9375 13.46354 26.77083 13.6875 26.46875 C 13.91145 26.16667 14.03124 25.77083 14.03125 25.25 C 14.03124 24.73177 13.91145 24.30208 13.6875 24 C 13.46354 23.6953 13.16406 23.5625 12.78125 23.5625 z M 25.78125 23.5625 C 25.39583 23.5625 25.09896 23.69792 24.875 24 C 24.65104 24.29948 24.53125 24.72656 24.53125 25.25 C 24.53125 25.77343 24.65364 26.16666 24.875 26.46875 C 25.09895 26.76822 25.39322 26.9375 25.78125 26.9375 C 26.16406 26.9375 26.46354 26.77083 26.6875 26.46875 C 26.91146 26.16667 27.03125 25.77083 27.03125 25.25 C 27.03125 24.73177 26.91146 24.30208 26.6875 24 C 26.46354 23.6953 26.16406 23.5625 25.78125 23.5625 z M 36.65625 23.5625 C 36.741211 23.54362 36.84245 23.5625 36.9375 23.5625 C 37.317701 23.56251 37.6276 23.69791 37.84375 24 C 38.062501 24.29948 38.15625 24.72135 38.15625 25.25 C 38.156251 25.77864 38.0625 26.19792 37.84375 26.5 C 37.627601 26.79948 37.3177 26.93749 36.9375 26.9375 C 36.557291 26.9375 36.25 26.79948 36.03125 26.5 C 35.815101 26.19792 35.71875 25.77864 35.71875 25.25 C 35.718751 24.72135 35.8151 24.29947 36.03125 24 C 36.195311 23.77344 36.40137 23.61914 36.65625 23.5625 z M 15.75 24.90625 L 17.875 24.90625 L 17.875 25.5625 L 15.75 25.5625 L 15.75 24.90625 z M 31.75 24.90625 L 31.75 25.5625 L 33.875 25.5625 L 33.875 24.90625 L 31.75 24.90625 z M 42.09375 25.21875 L 42.8125 25.21875 L 42.8125 25.375 C 42.812501 25.84375 42.67968 26.2474 42.4375 26.53125 C 42.197911 26.8125 41.86718 26.93749 41.46875 26.9375 C 41.179681 26.9375 40.95052 26.86719 40.78125 26.71875 C 40.614581 26.56771 40.53125 26.34895 40.53125 26.09375 C 40.531251 25.77344 40.65104 25.57031 40.875 25.4375 C 41.098961 25.30469 41.51301 25.21875 42.09375 25.21875 z M 0.84375 26.4375 L 1.6875 26.4375 L 1.6875 27.4375 L 0.84375 27.4375 L 0.84375 26.4375 z M 17.78125 31.34375 L 17.78125 37.4375 L 18.5 37.4375 L 18.5 35.28125 L 20.71875 37.4375 L 21.65625 37.4375 L 19.25 35.09375 L 21.5625 33.0625 L 20.65625 33.0625 L 18.5 34.9375 L 18.5 31.34375 L 17.78125 31.34375 z M 28.625 31.34375 C 28.13281 31.34376 27.78906 31.46355 27.5625 31.6875 C 27.33593 31.90886 27.21875 32.26303 27.21875 32.75 L 27.21875 33.0625 L 26.53125 33.0625 L 26.53125 33.625 L 27.21875 33.625 L 27.21875 37.4375 L 27.9375 37.4375 L 27.9375 33.625 L 29.125 33.625 L 29.125 33.0625 L 27.9375 33.0625 L 27.9375 32.65625 C 27.9375 32.38542 27.99479 32.19791 28.09375 32.09375 C 28.19531 31.98959 28.36718 31.9375 28.625 31.9375 L 29.3125 31.9375 L 29.3125 31.34375 L 28.625 31.34375 z M 29.90625 31.34375 L 29.90625 32.25 L 30.625 32.25 L 30.625 31.34375 L 29.90625 31.34375 z M 32.125 31.34375 L 32.125 37.4375 L 32.84375 37.4375 L 32.84375 31.34375 L 32.125 31.34375 z M 4.5625 31.59375 L 2.53125 38.15625 L 3.21875 38.15625 L 5.25 31.59375 L 4.5625 31.59375 z M 6.03125 31.59375 L 6.03125 37.4375 L 6.8125 37.4375 L 6.8125 32.3125 L 8.3125 36.3125 L 9.09375 36.3125 L 10.59375 32.3125 L 10.59375 37.4375 L 11.375 37.4375 L 11.375 31.59375 L 10.1875 31.59375 L 8.6875 35.5625 L 7.21875 31.59375 L 6.03125 31.59375 z M 14.4375 32.9375 C 14.20312 32.9375 13.96615 32.97917 13.71875 33.03125 C 13.47136 33.08073 13.23177 33.14844 12.96875 33.25 L 12.96875 33.90625 C 13.1875 33.78646 13.38802 33.71615 13.625 33.65625 C 13.86198 33.59636 14.125 33.5625 14.375 33.5625 C 14.76823 33.5625 15.06511 33.66146 15.28125 33.84375 C 15.5 34.02344 15.625 34.26302 15.625 34.59375 L 15.625 34.65625 L 14.59375 34.65625 C 13.9401 34.65625 13.45573 34.78124 13.125 35.03125 C 12.79688 35.28125 12.625 35.66407 12.625 36.15625 C 12.625 36.57813 12.76823 36.90364 13.03125 37.15625 C 13.29687 37.40625 13.64583 37.53124 14.09375 37.53125 C 14.44791 37.53125 14.7552 37.46874 15 37.34375 C 15.24479 37.21615 15.46093 37.01561 15.625 36.75 L 15.625 37.4375 L 16.34375 37.4375 L 16.34375 34.9375 C 16.34374 34.27083 16.18749 33.76563 15.875 33.4375 C 15.5625 33.10938 15.07031 32.93749 14.4375 32.9375 z M 24 32.9375 C 23.34375 32.9375 22.82552 33.17188 22.4375 33.59375 C 22.05209 34.01303 21.875 34.5651 21.875 35.28125 C 21.875 35.97396 22.0625 36.53125 22.46875 36.9375 C 22.87761 37.34375 23.42708 37.53124 24.125 37.53125 C 24.40364 37.53125 24.69791 37.52604 24.96875 37.46875 C 25.23958 37.41146 25.49218 37.32813 25.75 37.21875 L 25.75 36.53125 C 25.49479 36.66666 25.22916 36.77605 24.96875 36.84375 C 24.71093 36.91146 24.46354 36.9375 24.1875 36.9375 C 23.71093 36.9375 23.33073 36.78905 23.0625 36.53125 C 22.79688 36.27083 22.65625 35.90104 22.625 35.40625 L 25.90625 35.40625 L 25.90625 35.0625 C 25.90624 34.41146 25.75 33.90886 25.40625 33.53125 C 25.0651 33.15105 24.58854 32.93749 24 32.9375 z M 36.1875 32.9375 C 35.531241 32.9375 35.01302 33.17188 34.625 33.59375 C 34.239581 34.01303 34.03125 34.5651 34.03125 35.28125 C 34.031251 35.97396 34.25 36.53125 34.65625 36.9375 C 35.065101 37.34375 35.61458 37.53124 36.3125 37.53125 C 36.591141 37.53125 36.85417 37.52604 37.125 37.46875 C 37.395831 37.41146 37.64844 37.32813 37.90625 37.21875 L 37.90625 36.53125 C 37.651041 36.66666 37.41666 36.77605 37.15625 36.84375 C 36.898431 36.91146 36.61979 36.9375 36.34375 36.9375 C 35.867191 36.9375 35.48697 36.78905 35.21875 36.53125 C 34.953121 36.27083 34.8125 35.90104 34.78125 35.40625 L 38.09375 35.40625 L 38.09375 35.0625 C 38.093751 34.41146 37.90624 33.90886 37.5625 33.53125 C 37.221351 33.15105 36.77603 32.93749 36.1875 32.9375 z M 29.90625 33.0625 L 29.90625 37.4375 L 30.625 37.4375 L 30.625 33.0625 L 29.90625 33.0625 z M 24 33.5625 C 24.35417 33.5625 24.66145 33.67188 24.875 33.90625 C 25.09114 34.14063 25.18228 34.45052 25.1875 34.84375 L 22.625 34.84375 C 22.66145 34.43229 22.82291 34.13281 23.0625 33.90625 C 23.30468 33.67969 23.59896 33.5625 24 33.5625 z M 36.1875 33.5625 C 36.541661 33.5625 36.81771 33.67188 37.03125 33.90625 C 37.247391 34.14063 37.36979 34.45052 37.375 34.84375 L 34.8125 34.84375 C 34.848961 34.43229 34.97917 34.13281 35.21875 33.90625 C 35.460941 33.67969 35.78645 33.5625 36.1875 33.5625 z M 14.90625 35.21875 L 15.625 35.21875 L 15.625 35.375 C 15.625 35.84375 15.49218 36.2474 15.25 36.53125 C 15.01041 36.8125 14.67968 36.9375 14.28125 36.9375 C 13.99218 36.9375 13.76302 36.86719 13.59375 36.71875 C 13.42708 36.56771 13.34375 36.34895 13.34375 36.09375 C 13.34375 35.77344 13.46354 35.57031 13.6875 35.4375 C 13.91146 35.30469 14.32551 35.21874 14.90625 35.21875 z M 0.84375 36.4375 L 0.84375 37.4375 L 1.6875 37.4375 L 1.6875 36.4375 L 0.84375 36.4375 z M 18.6875 41.34375 L 18.6875 47.4375 L 19.40625 47.4375 L 19.40625 45.28125 L 21.625 47.4375 L 22.5625 47.4375 L 20.15625 45.09375 L 22.46875 43.0625 L 21.53125 43.0625 L 19.40625 44.9375 L 19.40625 41.34375 L 18.6875 41.34375 z M 32.40625 41.34375 C 31.914061 41.34376 31.57031 41.46354 31.34375 41.6875 C 31.11718 41.90886 31 42.26303 31 42.75 L 31 43.0625 L 30.3125 43.0625 L 30.3125 43.625 L 31 43.625 L 31 47.4375 L 31.71875 47.4375 L 31.71875 43.625 L 32.90625 43.625 L 32.90625 43.0625 L 31.71875 43.0625 L 31.71875 42.65625 C 31.71875 42.38542 31.77604 42.19792 31.875 42.09375 C 31.97656 41.98959 32.14843 41.93751 32.40625 41.9375 L 33.09375 41.9375 L 33.09375 41.34375 L 32.40625 41.34375 z M 38.78125 41.34375 L 38.78125 47.4375 L 39.5 47.4375 L 39.5 41.34375 L 38.78125 41.34375 z M 41 41.34375 L 41 47.4375 L 41.71875 47.4375 L 41.71875 41.34375 L 41 41.34375 z M 4.5625 41.59375 L 2.59375 48 L 3.28125 48 L 5.25 41.59375 L 4.5625 41.59375 z M 8.09375 42.9375 C 7.7786395 42.9375 7.51041 42.9974 7.28125 43.125 C 7.05208 43.2526 6.85156 43.45052 6.6875 43.71875 L 6.6875 43.0625 L 5.96875 43.0625 L 5.96875 47.4375 L 6.6875 47.4375 L 6.6875 44.96875 C 6.6875 44.54428 6.8151 44.1849 7.03125 43.9375 C 7.24739 43.6875 7.53906 43.5625 7.90625 43.5625 C 8.21614 43.5625 8.4453 43.67188 8.59375 43.875 C 8.7421795 44.07552 8.8125 44.39063 8.8125 44.8125 L 8.8125 47.4375 L 9.53125 47.4375 L 9.53125 44.96875 C 9.5312395 44.54167 9.6276 44.1849 9.84375 43.9375 C 10.05989 43.69011 10.3776 43.5625 10.75 43.5625 C 11.05468 43.5625 11.2578 43.67188 11.40625 43.875 C 11.55468 44.07813 11.625 44.39323 11.625 44.8125 L 11.625 47.4375 L 12.375 47.4375 L 12.375 44.78125 C 12.37499 44.19272 12.24738 43.75521 12 43.4375 C 11.75259 43.11719 11.39322 42.9375 10.9375 42.9375 C 10.59895 42.9375 10.31249 43.03386 10.0625 43.1875 C 9.8124895 43.34115 9.58594 43.58334 9.40625 43.90625 C 9.2994795 43.59896 9.1302 43.34896 8.90625 43.1875 C 8.6848895 43.02604 8.41145 42.9375 8.09375 42.9375 z M 15.34375 42.9375 C 15.10937 42.9375 14.87239 42.97917 14.625 43.03125 C 14.3776 43.08073 14.10677 43.14844 13.84375 43.25 L 13.84375 43.90625 C 14.0625 43.78646 14.29427 43.71615 14.53125 43.65625 C 14.76823 43.59636 14.99999 43.5625 15.25 43.5625 C 15.64322 43.5625 15.97135 43.66146 16.1875 43.84375 C 16.40625 44.02344 16.5 44.26302 16.5 44.59375 L 16.5 44.65625 L 15.5 44.65625 C 14.84635 44.65625 14.36198 44.78125 14.03125 45.03125 C 13.70312 45.28125 13.53125 45.66407 13.53125 46.15625 C 13.53125 46.57813 13.64323 46.90365 13.90625 47.15625 C 14.17188 47.40625 14.55208 47.53125 15 47.53125 C 15.35416 47.53125 15.63021 47.46875 15.875 47.34375 C 16.11979 47.21615 16.33594 47.01562 16.5 46.75 L 16.5 47.4375 L 17.21875 47.4375 L 17.21875 44.9375 C 17.21875 44.27083 17.0625 43.76563 16.75 43.4375 C 16.4375 43.10938 15.97655 42.9375 15.34375 42.9375 z M 24.90625 42.9375 C 24.24999 42.9375 23.73177 43.17188 23.34375 43.59375 C 22.95833 44.01303 22.75 44.5651 22.75 45.28125 C 22.75 45.97396 22.96875 46.53125 23.375 46.9375 C 23.78385 47.34375 24.33333 47.53125 25.03125 47.53125 C 25.30989 47.53125 25.57292 47.52604 25.84375 47.46875 C 26.11458 47.41146 26.36719 47.32813 26.625 47.21875 L 26.625 46.53125 C 26.36979 46.66666 26.13541 46.77605 25.875 46.84375 C 25.61718 46.91146 25.33854 46.9375 25.0625 46.9375 C 24.58594 46.9375 24.20572 46.78906 23.9375 46.53125 C 23.67187 46.27083 23.53125 45.90105 23.5 45.40625 L 26.8125 45.40625 L 26.8125 45.0625 C 26.8125 44.41146 26.62499 43.90886 26.28125 43.53125 C 25.9401 43.15105 25.49478 42.9375 24.90625 42.9375 z M 44.59375 42.9375 C 44.057291 42.9375 43.63541 43.05729 43.34375 43.28125 C 43.052081 43.50521 42.90625 43.83855 42.90625 44.25 C 42.906251 44.58855 43.02083 44.83594 43.21875 45.03125 C 43.416671 45.22396 43.74218 45.375 44.1875 45.46875 L 44.4375 45.53125 C 44.882811 45.6276 45.15104 45.70833 45.28125 45.8125 C 45.414061 45.91666 45.49999 46.08593 45.5 46.28125 C 45.499991 46.49218 45.40104 46.66407 45.21875 46.78125 C 45.036451 46.89584 44.77604 46.9375 44.4375 46.9375 C 44.184891 46.9375 43.91406 46.91145 43.65625 46.84375 C 43.398441 46.77343 43.14062 46.66927 42.875 46.53125 L 42.875 47.28125 C 43.156251 47.3724 43.43489 47.42448 43.6875 47.46875 C 43.942701 47.51562 44.17188 47.53125 44.40625 47.53125 C 44.968751 47.53125 45.42969 47.42448 45.75 47.1875 C 46.072911 46.95052 46.21874 46.625 46.21875 46.21875 C 46.218741 45.86198 46.12239 45.57292 45.90625 45.375 C 45.692701 45.17448 45.32291 45.04688 44.8125 44.9375 L 44.5625 44.875 C 44.177081 44.78906 43.9401 44.68751 43.8125 44.59375 C 43.684891 44.4974 43.625 44.38542 43.625 44.21875 C 43.625001 44.00001 43.69792 43.82812 43.875 43.71875 C 44.054691 43.60937 44.33073 43.56251 44.6875 43.5625 C 44.921871 43.56251 45.15625 43.57292 45.375 43.625 C 45.593751 43.67708 45.79687 43.77084 46 43.875 L 46 43.1875 C 45.802081 43.10937 45.57813 43.03907 45.34375 43 C 45.109381 42.96095 44.85938 42.9375 44.59375 42.9375 z M 33.625 43.0625 L 33.625 45.6875 C 33.624991 46.28906 33.73958 46.75 34 47.0625 C 34.260421 47.375 34.65365 47.53125 35.15625 47.53125 C 35.460941 47.53125 35.70833 47.47136 35.9375 47.34375 C 36.169271 47.21355 36.38802 47.01563 36.5625 46.75 L 36.5625 47.4375 L 37.28125 47.4375 L 37.28125 43.0625 L 36.5625 43.0625 L 36.5625 45.53125 C 36.562491 45.95833 36.44531 46.28385 36.21875 46.53125 C 35.994791 46.77864 35.70051 46.90625 35.3125 46.90625 C 34.989581 46.90625 34.72396 46.79948 34.5625 46.59375 C 34.401041 46.38541 34.34374 46.10157 34.34375 45.6875 L 34.34375 43.0625 L 33.625 43.0625 z M 48 43.25 C 47.872143 43.3328 47.764388 43.450066 47.65625 43.5625 C 47.265631 43.97136 47.0625 44.53646 47.0625 45.25 C 47.062501 45.95312 47.26822 46.49218 47.65625 46.90625 C 47.75972 47.016666 47.878084 47.10612 48 47.1875 L 48 46.1875 C 47.87032 45.930134 47.8125 45.620118 47.8125 45.25 C 47.812501 44.879875 47.87032 44.569764 48 44.3125 L 48 43.25 z M 24.90625 43.5625 C 25.26041 43.5625 25.53646 43.67188 25.75 43.90625 C 25.96614 44.14063 26.08854 44.45053 26.09375 44.84375 L 23.53125 44.84375 C 23.56771 44.43229 23.69792 44.13281 23.9375 43.90625 C 24.17969 43.67969 24.5052 43.5625 24.90625 43.5625 z M 27.625 44.90625 L 27.625 45.5625 L 29.71875 45.5625 L 29.71875 44.90625 L 27.625 44.90625 z M 15.78125 45.21875 L 16.5 45.21875 L 16.5 45.375 C 16.5 45.84375 16.36719 46.2474 16.125 46.53125 C 15.88542 46.8125 15.58594 46.9375 15.1875 46.9375 C 14.89844 46.9375 14.66927 46.86719 14.5 46.71875 C 14.33333 46.56771 14.25 46.34896 14.25 46.09375 C 14.25 45.77344 14.36979 45.57031 14.59375 45.4375 C 14.81771 45.30469 15.20052 45.21875 15.78125 45.21875 z M 0.84375 46.4375 L 0.84375 47.4375 L 1.6875 47.4375 L 1.6875 46.4375 L 0.84375 46.4375 z "
       transform="translate(373.51219,150.47134)"
       id="text2591" />
  </g>
</svg>
